<?xml version="1.0" standalone="no"?>
<!DOCTYPE svg PUBLIC "-//W3C//DTD SVG 1.1//EN" "http://www.w3.org/Graphics/SVG/1.1/DTD/svg11.dtd" >
<svg xmlns="http://www.w3.org/2000/svg" xmlns:xlink="http://www.w3.org/1999/xlink" version="1.1">
<metadata></metadata>
<defs>
<font id="francophilsansregular" horiz-adv-x="1058" >
<font-face units-per-em="2048" ascent="1638" descent="-410" />
<missing-glyph horiz-adv-x="454" />
<glyph horiz-adv-x="0" />
<glyph horiz-adv-x="682" />
<glyph horiz-adv-x="663" d="M35 1473q23 -135 104.5 -194.5t198.5 -59.5t200 59t105 195h-111q-18 -76 -72 -107t-122 -31q-66 0 -120 31t-73 107h-110z" />
<glyph horiz-adv-x="503" d="M131 1239h201v205h-201v-205z" />
<glyph horiz-adv-x="534" d="M90 1352q0 -76 53.5 -129.5t128.5 -53.5q76 0 129.5 53.5t53.5 129.5t-53.5 129t-129.5 53t-129 -53.5t-53 -128.5zM176 1352q0 41 27.5 68.5t68.5 27.5t69 -27.5t28 -68.5t-28 -69t-69 -28t-68.5 28t-27.5 69z" />
<glyph unicode="&#xa;" horiz-adv-x="661" d="M68 1153l92 -33q33 35 68.5 72t76.5 78t77 80t69 73l-160 52zM381 1153l92 -33l291 303l-160 52z" />
<glyph horiz-adv-x="538" d="M129 -217q0 -74 41 -108.5t115 -34.5q59 0 111.5 22.5t88.5 67.5l-47 39q-37 -29 -57.5 -38.5t-48.5 -9.5q-27 0 -45.5 20.5t-18.5 65.5q0 55 35 107.5t76 85.5h-80q-31 -16 -61.5 -38.5t-54 -51.5t-39 -61.5t-15.5 -65.5z" />
<glyph horiz-adv-x="655" d="M45 1458l236 -274h102l235 274l-157 8l-129 -168l-129 168z" />
<glyph unicode="&#xd;" horiz-adv-x="503" d="M162 0h178l-2 1055h-176v-1055z" />
<glyph horiz-adv-x="260" d="M-303 -25h137l815 1469h-135z" />
<glyph horiz-adv-x="1107" d="M16 911h195v-911h178l-2 911h238v144h-238v96q0 98 32 152.5t107 54.5q16 0 26.5 -1t19 -3t16.5 -4t18 -7l4 144l-106 14q-147 0 -220 -95t-73 -276v-75h-195v-144zM737 1366q0 -45 33 -78q33 -31 78 -31t78 31q33 33 32 78q0 45 -32 78q-33 31 -78 31t-78 -31 q-33 -33 -33 -78zM766 0h176v1055h-176v-1055z" />
<glyph horiz-adv-x="1107" d="M16 911h195v-911h178l-2 911h238v144h-238v90q0 104 34 158.5t107 54.5q27 0 43 -4q6 -2 15.5 -4t19.5 -7l4 144l-94 14q-160 0 -232.5 -92t-72.5 -279v-75h-195v-144zM776 0h178v74v198q0 125 -1 282t-1 320v322v281h-176v-1477z" />
<glyph horiz-adv-x="913" d="M12 414l140 100v-514h749l2 166h-559v487l305 221v148l-305 -221v618h-192v-757l-140 -101v-147z" />
<glyph horiz-adv-x="466" d="M29 563l123 107v-670h137l14 57h25v762l121 105v153l-121 -104v504h-176v-654l-123 -106v-154z" />
<glyph horiz-adv-x="1019" d="M35 0h917v166h-698l682 1100v153h-873v-164h652l-680 -1085v-170zM231 1812l236 -274h102l236 274l-158 9l-129 -168l-129 168z" />
<glyph horiz-adv-x="854" d="M57 0h748v143h-553l539 779v133h-699v-144h481l-516 -759v-152zM147 1458l236 -274h102l236 274l-158 8l-129 -168l-129 168z" />
<glyph unicode=" "  horiz-adv-x="454" />
<glyph unicode="&#x09;" horiz-adv-x="454" />
<glyph unicode="&#xa0;" horiz-adv-x="454" />
<glyph unicode="!" horiz-adv-x="626" d="M221 1421l47 -1044h135l31 592l19 452h-232zM226 117q1 -45 32 -78q33 -33 78 -33t78 33q31 33 31.5 78t-31.5 78q-33 31 -78 30q-45 0 -78 -30q-33 -33 -32 -78z" />
<glyph unicode="&#x22;" horiz-adv-x="935" d="M238 1190l24 -272h139l25 270l-2 231h-184zM553 1190l25 -272h139l24 270l-2 231h-184z" />
<glyph unicode="#" horiz-adv-x="1062" d="M45 426h180l-69 -426h147l70 426h231l-69 -426h147l70 426h206v143h-184l47 293h203v144h-180l67 413h-147l-68 -413h-231l67 413h-147l-68 -413h-206v-144h184l-47 -293h-203v-143zM395 569l47 293h232l-47 -293h-232z" />
<glyph unicode="$" horiz-adv-x="1071" d="M127 188q51 -92 149 -137q86 -39 199 -45v-194h121v200q139 25 229 99q123 104 123 280q0 82 -17.5 146.5t-56 116t-103 90t-159.5 71.5q-96 33 -151 62.5t-84 58.5t-37 60.5t-8 70.5q0 94 65.5 146.5t177.5 52.5q86 0 147.5 -32t100.5 -85l78 121q-49 74 -137 112 q-39 16 -81 26.5t-87 12.5v185h-121v-189q-131 -20 -217 -94q-113 -98 -113 -270q0 -162 91.5 -252t263.5 -148q78 -25 128 -52.5t79.5 -58t41 -68.5t11.5 -83q0 -98 -73 -161.5t-183 -63.5q-117 0 -192.5 44t-106.5 105z" />
<glyph unicode="%" horiz-adv-x="1615" d="M131 1053q0 -180 70.5 -283.5t199.5 -103.5t200 104t71 285q0 180 -70 283.5t-201 103.5q-141 0 -205.5 -98.5t-64.5 -290.5zM285 1053q0 129 24 195.5t90 66.5q68 0 92.5 -66.5t24.5 -195.5q0 -123 -26.5 -194t-86.5 -71q-63 0 -90.5 71t-27.5 194zM299 -25h147 l908 1469h-150zM942 365q0 -180 70.5 -284t199.5 -104t201 104.5t72 285.5q0 180 -69 283.5t-204 103.5q-141 0 -205.5 -99.5t-64.5 -289.5zM1096 365q0 129 24 195.5t90 66.5q68 0 93.5 -66.5t25.5 -195.5q0 -123 -27.5 -194t-87.5 -71q-63 0 -90.5 71t-27.5 194z" />
<glyph unicode="&#x26;" horiz-adv-x="1282" d="M117 383q0 -80 27.5 -153.5t82 -129t135 -89.5t185.5 -34q141 0 241 58q25 14 50.5 32.5t52.5 45.5l18 -29q57 -88 127 -86l213 6v66l-65 -4q-84 80 -172 190q76 94 125 223q27 68 43 137.5t20 141.5l-174 14q-4 -102 -31 -203q-23 -86 -77 -184q-43 59 -108 153.5 t-153 223.5q78 41 160 115q115 102 115 262q0 74 -24.5 131t-67.5 95t-102.5 57.5t-127.5 19.5t-124 -22.5t-97 -63.5t-64.5 -98.5t-23.5 -127.5q0 -98 33 -172q16 -35 37.5 -74.5t50.5 -82.5q-135 -53 -215 -148q-90 -109 -90 -270zM313 395q0 113 60 180q25 31 57.5 57.5 t71.5 51.5l305 -448q-16 -16 -30.5 -27.5t-26.5 -22.5q-88 -63 -162 -63q-59 0 -109.5 19.5t-87.5 55t-57.5 86t-20.5 111.5zM473 1128q0 78 44 123t97 45q68 0 109 -44t41 -130q0 -98 -78 -166q-50 -42 -111 -77q-16 23 -30.5 46t-28.5 52q-43 86 -43 151z" />
<glyph unicode="'" horiz-adv-x="512" d="M184 1190l25 -272h139l25 270l-2 231h-185z" />
<glyph unicode="(" horiz-adv-x="565" d="M104 584q0 -141 29 -275.5t71 -253t90 -214t87 -156.5h149q-35 59 -76.5 156.5t-78.5 217t-62.5 255t-25.5 270.5t25.5 270t62.5 256t79 218t76 157h-149q-39 -61 -87 -156.5t-90 -214.5t-71 -254t-29 -276z" />
<glyph unicode=")" horiz-adv-x="565" d="M43 -315h150q39 61 88 156.5t90 214t69.5 252.5t28.5 276q0 141 -28.5 276t-69.5 254t-90.5 214t-87.5 157h-150q33 -59 76 -156.5t80 -218.5t62.5 -256t25.5 -270t-25.5 -270.5t-62.5 -255t-80 -217t-76 -156.5z" />
<glyph unicode="*" horiz-adv-x="1091" d="M182 856l80 -139l275 188l-29 -330h160l-29 330l274 -188l80 139l-299 141l299 142l-80 139l-274 -188l29 329h-160l29 -329l-275 188l-80 -139l299 -142z" />
<glyph unicode="+" horiz-adv-x="1107" d="M74 473h401v-444h160v444h399v160h-399v438h-160v-438h-401v-160z" />
<glyph unicode="," horiz-adv-x="559" d="M94 -268h139l80 192l86 213l-2 94h-174h-53z" />
<glyph unicode="-" horiz-adv-x="497" d="M0 510h442v143h-442v-143z" />
<glyph unicode="." horiz-adv-x="348" d="M53 117q0 -45 33 -78q31 -33 76 -33t77.5 33t32.5 78t-32.5 77.5t-76.5 31.5t-77 -31q-33 -33 -33 -78z" />
<glyph unicode="/" horiz-adv-x="761" d="M-92 -61h158l634 1503h-157z" />
<glyph unicode="0" horiz-adv-x="1015" d="M68 709q0 -168 28.5 -303.5t84 -230.5t137 -146.5t190.5 -51.5t190.5 51.5t137 146.5t84 230.5t28.5 303.5t-28.5 304t-84 231t-137.5 146.5t-188 51.5q-109 0 -191.5 -51.5t-138 -146.5t-84 -231t-28.5 -304zM268 709q0 133 14.5 240.5t44 182t74.5 115.5t107 41 q61 0 106 -41t75 -115.5t44.5 -182t14.5 -240.5t-14.5 -240t-44.5 -181.5t-74 -115.5t-105 -41t-107.5 41t-76 115.5t-44 181t-14.5 240.5z" />
<glyph unicode="1" horiz-adv-x="1081" d="M229 1110l64 -133q39 27 74.5 49.5t70.5 47t71 53t77 67.5v-1075h-264l-7 -119h699l-2 119h-238l-2 1300h-158q-86 -92 -183 -166.5t-202 -142.5z" />
<glyph unicode="2" horiz-adv-x="1067" d="M94 0h871l6 158h-656q88 80 170 162.5t168 164.5q39 39 90.5 98.5t96.5 131t76.5 151.5t31.5 160q0 92 -30.5 169t-88 132t-137.5 85t-178 30q-66 0 -135.5 -26.5t-127.5 -58.5t-96 -59l-38 -26l86 -119l27 21q26 20 68 44.5t94 45t104 20.5q111 0 182.5 -70.5 t71.5 -181.5t-59.5 -214t-141.5 -189q-113 -117 -225.5 -225.5t-229.5 -219.5v-184z" />
<glyph unicode="3" horiz-adv-x="1067" d="M88 100l35 -20q35 -19 91 -41.5t128 -42t145 -19.5q111 0 202 28t155.5 80t100.5 127t36 167q0 147 -78 238.5t-227 119.5q129 27 205.5 116t76.5 206q0 86 -31.5 156.5t-88 120.5t-136 78t-178.5 28q-72 0 -141.5 -21.5t-126.5 -47t-92 -47.5l-35 -21l37 -64l41 -57 l29 16q28 17 72 35t97.5 34.5t102.5 16.5q117 0 183.5 -62.5t66.5 -166.5q0 -61 -24.5 -106.5t-68.5 -76t-102.5 -45t-126.5 -14.5h-129v-156h137q154 0 244 -66.5t90 -201.5q0 -123 -85 -189.5t-232 -66.5q-49 0 -101.5 14.5t-95.5 32t-70 31.5l-28 14z" />
<glyph unicode="4" horiz-adv-x="1073" d="M37 326h608v-326h186v326h203v153h-203v940h-256l-538 -946v-147zM240 479l405 789v-789h-405z" />
<glyph unicode="5" horiz-adv-x="1062" d="M119 90l33 -18q32 -17 82.5 -38.5t113 -39t123.5 -17.5q109 0 200 36t157.5 99.5t103.5 151.5t37 193q0 100 -33 186t-92.5 148.5t-140 97.5t-175.5 35q-119 0 -223 -80l21 416h583l15 159h-762l-29 -753l64 -13q53 61 124.5 88t149.5 27q68 0 123 -23.5t95 -65.5 t61.5 -100.5t21.5 -129.5q0 -70 -22.5 -128.5t-62.5 -99.5t-97.5 -64.5t-124.5 -23.5q-49 0 -98.5 13.5t-88 31t-63.5 30.5l-25 13z" />
<glyph unicode="6" horiz-adv-x="1067" d="M82 666q0 -176 34 -305.5t96 -214.5t149.5 -127t191.5 -42q94 0 175 35t138.5 97.5t90 148.5t32.5 188q0 100 -28.5 185.5t-80 147t-124 95t-158.5 33.5q-113 0 -211 -61q-74 -47 -121 -133v8q0 221 64 375q78 188 280 188q49 0 95.5 -13.5t82 -28.5t56.5 -28l22 -14 l86 139l-32 17q-31 16 -82.5 34.5t-112.5 35t-119 16.5q-127 0 -224 -52.5t-163.5 -152.5t-101.5 -243.5t-35 -327.5zM293 444q10 147 76 220q80 88 188 88q53 0 97 -22.5t76 -63.5t49.5 -96.5t17.5 -123.5t-18.5 -124t-51.5 -98t-78 -65.5t-96 -23.5q-119 0 -193 103 q-27 35 -42 85.5t-25 120.5z" />
<glyph unicode="7" horiz-adv-x="1069" d="M102 1257h654q-160 -285 -286 -605t-187 -652h204q61 330 175 644t294 636v139h-845z" />
<glyph unicode="8" horiz-adv-x="1064" d="M57 367q0 -84 36 -155t100.5 -123t151.5 -82t190 -30q104 0 192 29t150.5 81t97.5 125t35 163q0 137 -76 232t-223 151q123 55 188.5 142t65.5 200q0 78 -31 141.5t-87 107.5t-134 68.5t-172 24.5q-98 0 -179 -25.5t-138.5 -72t-89.5 -111t-32 -143.5q0 -102 55 -192.5 t205 -156.5q-66 -23 -121 -56.5t-96 -81.5t-64.5 -107.5t-23.5 -128.5zM254 375q0 106 68.5 174t181.5 115q59 -18 114.5 -45t97.5 -63t67.5 -83t25.5 -104q0 -106 -72.5 -173t-189.5 -67q-131 0 -212 66.5t-81 179.5zM295 1087q0 43 19.5 80t53 65t79 43t96.5 15 q104 0 167.5 -54t63.5 -149q0 -53 -20.5 -95t-52 -74.5t-69.5 -57t-75 -39.5q-49 20 -96 46t-84 58.5t-59.5 72.5t-22.5 89z" />
<glyph unicode="9" horiz-adv-x="1067" d="M76 975q0 -102 28.5 -187.5t81 -146.5t124 -95t157.5 -34q113 0 213 59q76 45 123 129v-16q0 -207 -68 -360q-84 -188 -278 -189q-49 0 -96.5 11.5t-83 25.5t-57.5 26l-23 11l-78 -141l31 -14q32 -15 82.5 -31.5t110.5 -31t118 -14.5q125 0 223 52.5t163.5 153 t100.5 243.5t35 328q0 176 -34 305t-96 214t-149.5 127t-191.5 42q-94 0 -174 -35t-138.5 -97.5t-91 -148.5t-32.5 -186zM270 969q0 68 18.5 125t51.5 99t77 66.5t95 24.5q127 0 197 -100q49 -72 67 -215q-4 -141 -71 -215q-78 -86 -183 -86q-55 0 -101 22.5t-80 62.5 t-52.5 95t-18.5 121z" />
<glyph unicode=":" horiz-adv-x="483" d="M177 117q1 -45 32 -78q33 -33 78 -33t78 33q31 33 31.5 78t-31.5 78q-33 31 -78 30q-45 1 -78 -30q-33 -33 -32 -78zM180 915q0 -44 33 -77q33 -31 78 -31t78 31q33 33 32 77q0 45 -32 78q-33 31 -78 31t-78 -31q-33 -33 -33 -78z" />
<glyph unicode=";" horiz-adv-x="512" d="M94 -268h139l80 192l86 213l-2 94h-174h-53zM180 915q0 -44 33 -77q33 -31 78 -31t78 31q33 33 32 77q0 45 -32 78q-33 31 -78 31t-78 -31q-33 -33 -33 -78z" />
<glyph unicode="&#x3c;" horiz-adv-x="1105" d="M88 489l938 -440v156l-725 344l725 344v156l-938 -441v-119z" />
<glyph unicode="=" horiz-adv-x="1099" d="M61 262h961v160h-961v-160zM61 676h961v160h-961v-160z" />
<glyph unicode="&#x3e;" horiz-adv-x="1105" d="M88 49l938 440v119l-938 441v-156l725 -344l-725 -344v-156z" />
<glyph unicode="?" horiz-adv-x="944" d="M106 1300l39 -65l37 -55l27 15t66.5 32.5t88 33t91.5 15.5q111 0 170 -59.5t59 -157.5t-44 -164t-110 -115q-49 -47 -78.5 -85t-45 -73.5t-20.5 -74.5t-5 -84v-86h172v76q0 72 27.5 121t93.5 114q39 27 76.5 66t68.5 86t49.5 105.5t18.5 125.5q0 70 -28 137.5t-81 118.5 t-129 83t-174 32q-72 0 -138.5 -22.5t-117.5 -48t-82 -48.5zM349 117q1 -45 32 -78q33 -33 78 -33t78 33q31 33 31.5 78t-31.5 78q-33 31 -78 30q-45 0 -78 -30q-33 -33 -32 -78z" />
<glyph unicode="@" horiz-adv-x="1476" d="M70 487q0 -147 52 -281t147.5 -235.5t227.5 -162t291 -60.5l-2 129q-104 0 -203.5 45t-178 126t-127 190.5t-48.5 238.5q0 127 44 237.5t119 191.5t174.5 128t209.5 47q106 0 198.5 -36.5t160 -100t105.5 -145.5t38 -174q0 -86 -22.5 -165t-56.5 -137.5t-74 -93 t-76 -34.5q-20 0 -41 20q-14 14 -15 41q0 8 1 15.5t3 17.5l142 547h-150l-28 -107q-12 37 -34 64.5t-47.5 46t-54 28t-53.5 9.5q-88 0 -160.5 -45.5t-124 -118t-79 -162.5t-27.5 -180q0 -70 22.5 -127.5t59.5 -97.5t83 -62.5t91 -22.5q66 0 119 39t80 80q18 -72 62 -97.5 t87 -25.5q76 0 152.5 45t138 121t100.5 177.5t39 215.5q0 119 -47 227.5t-132 191.5t-203 131t-259 48q-147 0 -276 -60t-224.5 -160.5t-149.5 -232.5t-54 -274zM545 389q0 57 18.5 118.5t51 111t74.5 81t91 31.5q59 0 96 -48t37 -118q0 -63 -16 -126.5t-47 -114t-75 -81 t-99 -30.5q-47 0 -89 42t-42 134z" />
<glyph unicode="A" horiz-adv-x="1167" d="M14 0h185l114 383h547l123 -383h201l-477 1419h-211zM365 535l225 694l223 -694h-448z" />
<glyph unicode="B" horiz-adv-x="1148" d="M150 0h473q199 0 313.5 98.5t114.5 278.5q0 127 -41 199.5t-90.5 108.5t-90.5 44l-41 8l35 11q35 12 78 46.5t78 99t35 171.5q0 174 -109.5 264t-314.5 90h-440v-1419zM342 160v499h219q291 0 291 -256q0 -119 -70.5 -181t-199.5 -62h-240zM342 813v451h244 q113 0 175 -55.5t62 -159.5q0 -236 -270 -236h-211z" />
<glyph unicode="C" horiz-adv-x="1103" d="M84 705q0 -160 44 -293t123 -230.5t188.5 -151t242.5 -53.5q59 0 124.5 24t120 53.5t90.5 53.5l36 23l-41 62l-41 63l-28 -18q-28 -19 -68.5 -40.5t-88 -39t-88.5 -17.5q-92 0 -166.5 42t-129 118t-83 180.5t-28.5 231.5q0 129 28.5 233.5t82 178t130 113.5t173.5 40 q39 0 85 -20.5t84.5 -46t65.5 -45.5l27 -21l43 61l41 62l-31 28q-31 27 -82 58.5t-115.5 59.5t-132.5 28q-139 0 -250.5 -53.5t-190.5 -149.5t-122 -232.5t-43 -301.5z" />
<glyph unicode="D" horiz-adv-x="1284" d="M156 0h426q147 0 263 50t196.5 144.5t122.5 226.5t42 298q0 152 -44 279.5t-127 222t-200.5 146.5t-265.5 52h-413v-1419zM348 166v1087h219q211 0 325 -146t114 -400t-110 -397.5t-314 -143.5h-234z" />
<glyph unicode="E" horiz-adv-x="1032" d="M160 0h784v166h-592v491h549v164h-549v430h500v168h-692v-1419z" />
<glyph unicode="F" horiz-adv-x="894" d="M145 0h195l-2 657h547l-2 164h-543l-2 430h487v168h-680v-1419z" />
<glyph unicode="G" horiz-adv-x="1265" d="M90 709q0 -166 43 -300.5t122 -230.5t190.5 -148.5t250.5 -52.5q53 0 91 7.5t70 23t60.5 37t61.5 49.5l22 -92h129v748h-514v-160h322v-277q-10 -70 -67.5 -121t-149.5 -51q-98 0 -177 41t-134.5 115t-85 177.5t-29.5 230.5q0 129 29.5 234t83 181t130 117t173.5 41 q49 0 106 -19.5t105.5 -44t79.5 -44.5l32 -19l84 131l-37 24q-37 25 -94 56t-129 55.5t-141 24.5q-141 0 -257 -52.5t-198 -148.5t-127 -231.5t-45 -300.5z" />
<glyph unicode="H" horiz-adv-x="1286" d="M164 0h190v657h586v-657h190v1419h-190v-592h-586v592h-190v-1419z" />
<glyph unicode="I" horiz-adv-x="489" d="M168 0h192v1419h-192v-1419z" />
<glyph unicode="J" horiz-adv-x="718" d="M25 2q20 -6 64 -17.5t99 -11.5q184 0 280.5 106.5t96.5 305.5v1034h-192v-1007q0 -152 -52.5 -210.5t-154.5 -58.5q-61 0 -89 6.5t-52 14.5v-162z" />
<glyph unicode="K" horiz-adv-x="1196" d="M168 0h192v473l119 158l488 -631h250l-578 805l500 614h-238l-541 -712v712h-192v-1419z" />
<glyph unicode="L" horiz-adv-x="913" d="M152 0h749l2 166h-559v1253h-192v-1419z" />
<glyph unicode="M" horiz-adv-x="1650" d="M158 0h180v1247l414 -1247h149l410 1245v-1245h190v1419h-303l-360 -1159l-375 1159h-305v-1419z" />
<glyph unicode="N" horiz-adv-x="1282" d="M160 0h180v1202l573 -1182l11 -20h219v1419h-180v-1151l-549 1151h-254v-1419z" />
<glyph unicode="O" horiz-adv-x="1320" d="M84 709q0 -162 41 -296t116.5 -231.5t182 -151t235.5 -53.5t235.5 53.5t182.5 151t117 231.5t41 296t-41 297t-117 232t-182.5 150.5t-235.5 53.5t-235.5 -53.5t-182 -150.5t-116.5 -232.5t-41 -296.5zM287 709q0 129 25.5 233.5t73.5 179t117.5 115.5t155.5 41t156 -41 t118 -115.5t73.5 -179t25.5 -233.5q0 -127 -25.5 -231.5t-73.5 -179.5t-118 -116t-156 -41t-155.5 41t-117.5 116t-73.5 179.5t-25.5 231.5z" />
<glyph unicode="P" horiz-adv-x="1032" d="M129 0h193v573h241q98 0 177 30t135.5 84t87 131t30.5 171q0 209 -119.5 319.5t-336.5 110.5h-408v-1419zM322 737v516h208q117 0 190 -70.5t73 -187.5q0 -123 -68 -193q-66 -68 -179 -67h-7z" />
<glyph unicode="Q" horiz-adv-x="1320" d="M82 709q0 -156 38 -286t107.5 -225.5t168 -152.5t220.5 -65q31 -115 110 -165.5t185 -50.5q117 0 200 59.5t106 194.5h-111q-18 -76 -72.5 -106.5t-122.5 -30.5q-57 0 -105 21.5t-73 74.5q10 4 34 11.5t97 25.5q135 61 215 166q160 205 160 529q0 162 -41 297t-116.5 232 t-183 150.5t-239.5 53.5q-131 0 -237.5 -53.5t-182 -150.5t-116.5 -232.5t-41 -296.5zM285 709q0 129 25.5 233.5t74.5 179t118.5 115.5t155.5 41q88 0 158 -41t119 -115.5t74.5 -179t25.5 -233.5q0 -127 -25.5 -231.5t-74.5 -179.5t-118.5 -116t-158.5 -41q-86 0 -155.5 41 t-118.5 116t-74.5 179.5t-25.5 231.5z" />
<glyph unicode="R" horiz-adv-x="1148" d="M152 0h192v623h231q35 -27 58.5 -57.5t45 -71.5t45.5 -94.5t56 -125.5l125 -274h213l-135 287q-53 117 -98 211t-105 186q131 35 189.5 130t58.5 216q0 193 -112.5 291t-327.5 98h-436v-1419zM344 786v467h248q111 0 174 -58t63 -163q0 -117 -69.5 -181.5t-192.5 -64.5 h-223z" />
<glyph unicode="S" horiz-adv-x="1026" d="M82 129l37 -23q37 -24 95 -52.5t128 -52.5t137 -24q106 0 193.5 29t150 82t96 128t33.5 167q0 86 -18.5 152.5t-60.5 119t-110.5 93t-168.5 75.5q-98 35 -155.5 63.5t-88.5 58.5t-40 60.5t-9 71.5q0 98 66.5 150.5t179.5 52.5q45 0 92 -16.5t85 -35t62 -34.5l23 -16 l86 141l-35 19q-35 20 -89 42.5t-117.5 42t-121.5 19.5q-199 0 -313.5 -102.5t-114.5 -280.5q0 -166 96.5 -259t276.5 -151q80 -27 133.5 -54.5t84 -59t44 -70.5t13.5 -88t-20.5 -92t-56.5 -75t-85 -49.5t-107 -17.5q-61 0 -118.5 19.5t-101.5 43t-71 42.5l-28 20z" />
<glyph unicode="T" horiz-adv-x="987" d="M6 1251h389v-1251h193v1251h391v168h-973v-168z" />
<glyph unicode="U" horiz-adv-x="1269" d="M152 528q0 -266 121.5 -408.5t361.5 -142.5q236 0 357.5 144.5t121.5 413.5v884h-178v-852q0 -211 -68.5 -316.5t-228.5 -105.5t-227.5 101.5t-67.5 306.5v866h-192v-891z" />
<glyph unicode="V" horiz-adv-x="1124" d="M-2 1419l465 -1419h203l467 1419h-189l-371 -1214l-366 1214h-209z" />
<glyph unicode="W" horiz-adv-x="1697" d="M-4 1419l358 -1419h232l262 1180l278 -1180h226l352 1419h-188l-267 -1192l-282 1192h-224l-266 -1190l-274 1190h-207z" />
<glyph unicode="X" horiz-adv-x="1122" d="M-2 0h209l350 604l352 -604h232l-453 754l402 665h-203l-309 -534l-306 534h-225l404 -682z" />
<glyph unicode="Y" horiz-adv-x="1140" d="M2 1419l475 -825v-594h193v594l469 825h-203l-350 -645l-359 645h-225z" />
<glyph unicode="Z" horiz-adv-x="1019" d="M35 0h917v166h-698l682 1100v153h-873v-164h652l-680 -1085v-170z" />
<glyph unicode="[" horiz-adv-x="569" d="M150 -313l112 -2h230v125h-181v1550h181v125h-230l-112 -2v-1796z" />
<glyph unicode="\" horiz-adv-x="761" d="M-135 1442l620 -1503h160l-620 1503h-160z" />
<glyph unicode="]" horiz-adv-x="581" d="M100 -190v-125h230l112 2v1796l-112 2h-230v-125h181v-1550h-181z" />
<glyph unicode="^" horiz-adv-x="1101" d="M147 569h158l246 658l250 -658h157l-340 850h-135z" />
<glyph unicode="_" horiz-adv-x="993" d="M25 -330v-112h942v112h-942z" />
<glyph unicode="`" horiz-adv-x="583" d="M53 1417q20 -12 58.5 -40.5t83.5 -64.5t91 -75t87 -70l92 37q-20 14 -53 48t-78 87q-47 55 -78 89t-51 49q-35 -16 -88 -31q-55 -16 -64 -29z" />
<glyph unicode="a" horiz-adv-x="1003" d="M86 289q0 -141 88 -226.5t250 -85.5q86 0 168 41.5t143 145.5l10 -164h170q-2 0 -9 50t-7 120v483q0 221 -85 323.5t-284 102.5q-76 0 -142 -12t-116.5 -27.5t-79.5 -27.5l-28 -13l31 -122l31 9q32 9 78 21.5t100.5 21.5t99.5 9q106 0 162.5 -58.5t56.5 -189.5v-41h-129 q-33 0 -62.5 -1t-58.5 -3q-186 -14 -286.5 -104t-100.5 -252zM276 297q0 103 84 165q77 56 228 57q15 0 30 -1l105 -4v-72q0 -66 -18.5 -123t-53.5 -102t-84 -70.5t-110 -25.5q-86 0 -133.5 52t-47.5 124z" />
<glyph unicode="b" horiz-adv-x="1044" d="M129 0h137l27 164q43 -86 122 -136.5t171 -50.5t165.5 40t124 114t77 178.5t26.5 233.5q0 123 -26.5 221t-76 169t-121 108.5t-163.5 37.5q-78 0 -154 -41t-131 -147v586h-178v-1477zM305 494v92q0 70 18.5 133t51.5 111.5t80 76t102 27.5q113 0 173.5 -110.5 t60.5 -297.5q0 -180 -62.5 -291.5t-173.5 -111.5q-55 0 -101 28.5t-79 78t-51.5 117t-18.5 147.5z" />
<glyph unicode="c" horiz-adv-x="815" d="M57 530q0 -121 33 -222t93.5 -175t143.5 -115t181 -41q51 0 99 21.5t84 46.5t57 47l22 21l-37 51l-37 51l-15 -15q-15 -14 -41 -30t-59.5 -30.5t-70.5 -14.5q-123 0 -192.5 111.5t-69.5 295.5q0 86 19.5 159t53 127t82 84t105.5 30q39 0 83 -19.5t69.5 -36t29.5 -18.5 l74 98l-24 20q-23 19 -62 41.5t-86 42t-92 19.5q-102 0 -183 -41t-139.5 -113.5t-89.5 -173t-31 -221.5z" />
<glyph unicode="d" horiz-adv-x="1050" d="M70 545q0 -129 26.5 -233.5t76.5 -179.5t124 -115t166 -40q86 0 166 49.5t129 141.5l20 -168h148v1477h-178v-566q-66 100 -137.5 134t-149.5 34q-90 0 -162 -39t-123 -109.5t-78.5 -168.5t-27.5 -217zM262 541q0 178 62.5 286.5t175.5 108.5q51 0 96 -24.5t79 -70.5 t53.5 -112.5t19.5 -150.5v-89q0 -76 -19.5 -142t-53.5 -116.5t-81 -79t-102 -28.5q-53 0 -95.5 30.5t-72 86t-46 132.5t-16.5 169z" />
<glyph unicode="e" horiz-adv-x="993" d="M70 532q0 -264 120.5 -409.5t350.5 -145.5q53 0 113.5 12.5t112.5 26t69 19.5l51 18l-35 62l-31 82l-29 -11q-28 -12 -70 -25.5t-90 -24.5t-87 -11q-141 0 -215 115q-59 96 -72 258h668l-6 20q-4 260 -106.5 410.5t-305.5 150.5q-98 0 -179 -40t-138.5 -111.5t-89 -172 t-31.5 -223.5zM260 631q14 123 62 200q68 106 184 107q100 0 161.5 -82t63.5 -225h-471z" />
<glyph unicode="f" horiz-adv-x="610" d="M16 911h195v-911h137l14 -2h25v913h217v144h-217v100q0 100 34 145.5t120 45.5q29 0 46 -3.5t44 -11.5l4 156l-135 14q-150 0 -219.5 -92t-69.5 -279v-75h-195v-144z" />
<glyph unicode="g" horiz-adv-x="974" d="M43 -150q0 -141 116.5 -208.5t340.5 -67.5q215 0 339 67.5t124 221.5q0 68 -28 117t-75 81.5t-112.5 51t-139.5 22.5q-72 4 -132 9.5t-104 15.5t-68.5 29.5t-24.5 52.5q0 41 32 65q23 18 58 29q49 -16 110 -17q174 0 273.5 102.5t99.5 280.5q0 127 -68 218l193 108 l-49 115l-234 -133q-87 69 -206 69h-3q-82 0 -149.5 -26.5t-116.5 -75.5t-75.5 -120t-26.5 -159q0 -158 104 -268q6 -6 13.5 -12t15.5 -15q-51 -23 -86 -69q-39 -47 -39 -113q0 -113 88 -162q-72 -35 -121 -84q-49 -53 -49 -125zM203 -137q0 45 43 80q18 16 46.5 31.5 t67.5 31.5q78 -20 177 -22q125 -6 191.5 -38t66.5 -89q0 -41 -23.5 -69t-63.5 -45t-93.5 -25.5t-112.5 -8.5q-160 0 -229.5 41t-69.5 113zM279 698q0 104 57 171t149 67t147.5 -65.5t55.5 -172.5q0 -113 -50 -172t-155 -59q-94 0 -149 62.5t-55 168.5z" />
<glyph unicode="h" d="M137 0h176v526q0 190 73 298t189 108q92 0 139.5 -70.5t47.5 -193.5v-668h176v647q0 209 -82 320.5t-242 111.5q-98 0 -175 -48t-126 -154v600h-176v-1477z" />
<glyph unicode="i" horiz-adv-x="503" d="M150 1366q-1 -45 32 -78q33 -31 76 -31q45 0 78 31q33 33 33 78t-33 78q-33 31 -78 31q-43 0 -76 -31q-33 -33 -32 -78zM170 0q47 0 90 -1t86 -1v1057h-176v-1055z" />
<glyph unicode="j" horiz-adv-x="456" d="M-68 -401q16 -4 41 -9.5t70 -5.5q141 0 205.5 88t64.5 273v1110h-176v-1088q0 -117 -26.5 -174t-100.5 -57l-73 12zM120 1363q0 -43 32 -75q33 -31 77 -31q45 0 78 31q32 32 32 75v3q-1 45 -32 78q-33 33 -78 33t-77 -33q-32 -34 -32 -81z" />
<glyph unicode="k" horiz-adv-x="972" d="M141 0h138l14 -2h24v405l86 97l342 -500h228l-432 631l387 424h-226l-385 -480v902h-176v-1477z" />
<glyph unicode="l" horiz-adv-x="503" d="M162 0h137l14 -2h25v1479h-176v-1477z" />
<glyph unicode="m" horiz-adv-x="1562" d="M127 0h176v539q0 186 60.5 289.5t164.5 103.5q86 0 125 -74t39 -209v-649h176v543q0 186 59.5 287.5t164.5 101.5q86 0 123.5 -74t37.5 -209v-649h177v674q0 193 -73 299t-220 106q-55 0 -101.5 -17.5t-85.5 -48t-66.5 -71.5t-45.5 -86q-25 104 -92.5 163.5t-174.5 59.5 q-92 0 -160.5 -47t-113.5 -151v174h-170v-1055z" />
<glyph unicode="n" d="M131 0h137l15 -2h24v528q0 190 73 298t189 108q92 0 139.5 -70.5t47.5 -193.5v-668h137l14 -2h25v649q0 209 -82 320.5t-242 111.5q-98 0 -177 -48t-130 -159v183h-170v-1055z" />
<glyph unicode="o" horiz-adv-x="1054" d="M74 528q0 -119 33.5 -220t94 -175t144.5 -115t182 -41t181.5 41t143.5 115t94 175t34 220q0 121 -33 222.5t-93 174t-143 113.5t-184 41q-102 0 -185 -41t-143.5 -113.5t-93 -174t-32.5 -222.5zM266 528q0 88 18.5 163t53.5 129t83 84t107 30t107.5 -30t82.5 -84t52 -129 t18 -163q0 -90 -17 -164.5t-51 -128t-82 -83t-110 -29.5q-61 0 -109 29.5t-82 83t-52.5 128t-18.5 164.5z" />
<glyph unicode="p" horiz-adv-x="1044" d="M139 -389h176v545q49 -94 126 -136.5t163 -42.5t158 40t122 112t77.5 173t27.5 224t-26.5 225.5t-77.5 175t-123 112.5t-162 40q-86 0 -162 -48t-131 -152l-20 176h-148v-1444zM313 473v135q6 63 26.5 121.5t53.5 103t76 71t94 26.5q117 0 174.5 -109.5t57.5 -300.5 q0 -86 -17.5 -157.5t-48.5 -125t-73 -83t-91 -29.5q-55 0 -101 29.5t-80 79t-52.5 111.5t-18.5 128z" />
<glyph unicode="q" horiz-adv-x="1050" d="M72 524q0 -123 26.5 -223t77.5 -172t122 -112t161 -40q82 0 159.5 43.5t126.5 147.5v-557h177v1444h-19h-117l-30 -162q-45 94 -127 140t-164 46q-92 0 -166 -40t-124 -111.5t-76.5 -175t-26.5 -228.5zM264 528q0 186 59.5 296t176.5 110q55 0 100 -30t78 -82t50 -122.5 t17 -154.5v-43q0 -74 -19 -142.5t-52 -121t-77 -83t-93 -30.5q-55 0 -99.5 29.5t-76 83t-48 127t-16.5 163.5z" />
<glyph unicode="r" horiz-adv-x="622" d="M104 0h177v498q0 92 17 169.5t49 133t78 86.5t105 31l64 -11v164l-70 8q-78 0 -146.5 -55t-109.5 -178l-20 209h-144v-1055z" />
<glyph unicode="s" horiz-adv-x="827" d="M59 143l34 -25q34 -26 84 -57.5t108.5 -57.5t107.5 -26q168 0 268.5 88.5t100.5 235.5q0 123 -66.5 196.5t-208.5 114.5q-123 35 -173 76t-50 105q0 63 43 102t129 39q31 0 67 -15.5t65.5 -35t49.5 -34.5l21 -15l76 104l-30 22q-30 23 -73 48.5t-94 48t-94 22.5 q-76 0 -140.5 -20.5t-110.5 -60.5t-71.5 -96t-25.5 -128q0 -68 21.5 -118t58.5 -85.5t89 -59.5t113 -40q92 -25 153.5 -69t61.5 -115q0 -78 -52 -120t-138 -42q-43 0 -87 20.5t-80 44t-58 44.5l-23 20z" />
<glyph unicode="t" horiz-adv-x="645" d="M-8 915h190v-626q0 -311 305 -312q23 0 47.5 2.5t48 5.5t42 7t26.5 6v149q-20 -6 -55 -16t-80 -10h-2q-156 0 -156 198v596h232v144h-232v291l-176 -41v-250h-190v-144z" />
<glyph unicode="u" d="M131 416q0 -215 81 -327t249 -112q98 0 175 55.5t126 153.5l41 -186h129v1055h-176v-527q0 -90 -19.5 -163.5t-55.5 -127t-83 -82t-102 -28.5q-94 0 -141.5 74.5t-47.5 216.5v637h-176v-639z" />
<glyph unicode="v" horiz-adv-x="839" d="M-4 1055l336 -1055h190l332 1055h-172l-244 -867l-245 867h-197z" />
<glyph unicode="w" horiz-adv-x="1382" d="M0 1055l295 -1055h168l225 846l234 -846h168l282 1055h-162l-206 -840l-220 840h-180l-215 -842l-201 842h-188z" />
<glyph unicode="x" horiz-adv-x="849" d="M0 0h197l229 422l229 -422h211l-336 565l295 490h-188l-197 -369l-190 369h-213l301 -504z" />
<glyph unicode="y" horiz-adv-x="833" d="M-8 1055l346 -1055l16 -57q-18 -68 -40.5 -109t-50 -64.5t-59.5 -31.5t-69 -8l-92 16l-8 -145l123 -17q74 0 126 19.5t91 58.5t66.5 97.5t50.5 136.5l348 1159h-170l-246 -840l-240 840h-192z" />
<glyph unicode="z" horiz-adv-x="854" d="M57 0h748v143h-553l539 779v133h-699v-144h481l-516 -759v-152z" />
<glyph unicode="{" horiz-adv-x="575" d="M57 514q80 -10 115 -62.5t35 -156.5v-377q0 -41 14.5 -82t42 -74.5t69.5 -55t97 -21.5h115v127h-80q-41 0 -66.5 30.5t-25.5 108.5v350q0 129 -41 194.5t-107 88.5q66 25 107 90t41 194v351q0 78 25.5 108.5t66.5 30.5h80v127h-115q-55 0 -97 -21.5t-69.5 -55.5t-42 -76 t-14.5 -81v-377q0 -104 -35 -156t-115 -63v-141z" />
<glyph unicode="|" horiz-adv-x="458" d="M152 -23h153v1512h-153v-1512z" />
<glyph unicode="}" horiz-adv-x="575" d="M35 -188v-127h112q55 0 97.5 21.5t70 55t42 74.5t14.5 82v377q0 104 34.5 156.5t116.5 62.5v141q-82 10 -116.5 62.5t-34.5 156.5v377q0 39 -14.5 81t-42 76t-69.5 55.5t-98 21.5h-112v-127h78q43 0 67.5 -31t24.5 -108v-351q0 -129 41 -194.5t108 -89.5 q-68 -23 -108.5 -88.5t-40.5 -194.5v-350q0 -78 -25.5 -108.5t-66.5 -30.5h-78z" />
<glyph unicode="~" horiz-adv-x="1105" d="M113 465l98 -74q12 61 47 109.5t86 48.5t194.5 -88t237.5 -88q39 0 77 20.5t68.5 54t51 77.5t26.5 93l-98 74q-10 -61 -46 -109t-85 -48q-53 0 -196.5 88t-235.5 88q-41 0 -79 -20.5t-68.5 -54.5t-51 -78t-26.5 -93z" />
<glyph unicode="&#xa1;" horiz-adv-x="626" d="M221 -377h232l-47 1045h-136l-30 -592zM227 831h222v213h-222v-213z" />
<glyph unicode="&#xa2;" horiz-adv-x="1052" d="M178 618q0 -231 123 -380q49 -61 135 -109l-49 -305h121l43 270q27 -6 70 -6q104 0 174.5 58.5t83.5 138.5q-20 25 -37 51q-16 31 -37 51q-4 -25 -19.5 -51.5t-40 -49t-55.5 -36.5t-65 -14q-35 0 -50 6l119 741q10 -4 19.5 -10t19.5 -12q49 -35 66 -99l73 99 q-29 84 -98 133q-23 16 -57 32l41 258h-121l-39 -239q-188 -6 -303 -148q-117 -145 -117 -379zM369 621q0 162 69 268q53 82 135 102l-110 -688q-23 25 -29 37q-66 109 -65 281z" />
<glyph unicode="&#xa3;" horiz-adv-x="1052" d="M49 0h758q76 0 125 30.5t65 69.5l-61 140q-10 -18 -51 -31.5t-96.5 -23t-119 -13.5t-114.5 -4h-139q41 68 54 137.5t17 155.5l13 229h280v121h-272l-4 168q-4 152 59.5 226.5t163.5 74.5q47 0 88 -23.5t80 -68.5l57 84l6 63q-47 49 -105 78t-144 29q-94 0 -169 -37 t-127.5 -99.5t-80 -147.5t-25.5 -179l2 -168h-168v-121h166l-12 -256q-4 -111 -38 -173t-112 -93h-51l-45 2v-170z" />
<glyph unicode="&#xa5;" horiz-adv-x="1052" d="M10 1419l316 -614h-201v-121h262l45 -88v-84h-307v-121h307v-391h195v391h299v121h-299v84l43 88h256v121h-195l303 614h-194l-303 -645l-308 645h-219z" />
<glyph unicode="&#xa6;" horiz-adv-x="458" d="M152 -23h153v576h-153v-576zM152 913h153v576h-153v-576z" />
<glyph unicode="&#xa7;" horiz-adv-x="1062" d="M137 -166q23 -35 61 -61.5t84 -45t98 -28.5t101 -10q92 0 171 22.5t137.5 63.5t92 101.5t33.5 135.5q1 174 -149 258q80 51 125 123t45 172q0 94 -58.5 173t-197.5 145l-82 39q-125 37 -188.5 84t-63.5 120q0 45 19.5 78t51.5 53.5t72.5 29.5t83.5 9q66 0 127.5 -30.5 t102.5 -79.5l88 110q-20 35 -55 61.5t-78 45t-91.5 29t-93.5 10.5q-86 0 -158.5 -22.5t-125.5 -63.5t-84 -101.5t-31 -136.5q0 -174 150 -258q-80 -51 -125 -122.5t-45 -172.5q0 -94 58 -173t198 -144l84 -39q123 -37 186 -84t63 -121q0 -47 -21.5 -78.5t-57 -52t-82.5 -30 t-97 -9.5q-76 0 -146.5 31t-113.5 80zM324 596q0 59 31.5 119.5t78.5 89.5l207 -90q72 -31 98.5 -75t26.5 -103t-32 -120t-79 -89l-206 90q-72 31 -98.5 75t-26.5 103z" />
<glyph unicode="&#xa8;" horiz-adv-x="651" d="M16 1346q0 -45 33 -78q33 -31 78 -31t78 31q33 33 33 78t-33 77q-33 31 -78 31t-78 -31q-33 -33 -33 -77zM365 1345.5q1 -44.5 32 -77.5q33 -33 78 -33t78 33q31 33 32 78t-32 77q-33 31 -78 31t-78 -31q-33 -33 -32 -77.5z" />
<glyph unicode="&#xa9;" horiz-adv-x="1447" d="M49 653q0 -139 53.5 -262t145.5 -215t215 -145.5t264 -53.5q139 0 262 53.5t215 145.5t145.5 215t53.5 262t-53.5 262t-145.5 215.5t-215 145.5t-264 53q-139 0 -262 -53t-215 -145.5t-145.5 -215t-53.5 -262.5zM203 653q0 111 41 209.5t112.5 172t166.5 116.5t204 43 q106 0 201.5 -43t167 -116.5t112.5 -172t41 -209.5t-41 -209t-112.5 -171.5t-166.5 -116.5t-204 -43t-203 43t-165.5 116.5t-112.5 172t-41 208.5zM371 649q0 -90 28.5 -162.5t78.5 -126t120 -82t152 -28.5q57 0 110 18.5t95 54t72 89t42 123.5l-29 -7h-106 q-12 -76 -61.5 -115.5t-118.5 -39.5q-123 0 -183.5 82t-60.5 207q0 111 60.5 186.5t177.5 75.5q80 0 128 -44t60 -100l135 -6q-18 123 -104 198t-215 75q-90 0 -161 -30t-120 -83t-74.5 -126t-25.5 -159z" />
<glyph unicode="&#xaa;" horiz-adv-x="649" d="M61 969q0 -86 58.5 -137.5t165.5 -51.5q55 0 110.5 26t96.5 87l6 -98h112q-2 0 -7 29.5t-5 72.5v289q0 135 -55.5 195.5t-186.5 60.5q-100 0 -162.5 -33t-78.5 -76l47 -61q51 86 176 86q70 0 107.5 -35t37.5 -115v-24l-166 -2q-123 -2 -189.5 -58.5t-66.5 -154.5z M188 973q0 63 54.5 100t171.5 33l69 -2v-43q0 -39 -12 -75t-35.5 -62.5t-56.5 -42t-72 -15.5q-55 0 -87 32t-32 75z" />
<glyph unicode="&#xab;" horiz-adv-x="884" d="M86 535l219 -353h131l-166 359l166 358h-131l-219 -352v-12zM430 535l219 -353h131l-166 359l166 358h-131l-219 -352v-12z" />
<glyph unicode="&#xac;" horiz-adv-x="1447" d="M96 651q0 -135 50.5 -256t137.5 -210t202.5 -141t246.5 -52q123 0 230.5 45t193.5 123h-129l-338 465l-82 -123v-342h-133v983h133v-494l375 494h164l-346 -412l383 -545q88 90 138 210t50 255t-50 256t-137 210t-203 141.5t-247 52.5q-133 0 -248.5 -52.5t-202.5 -141.5 t-137.5 -210t-50.5 -256zM913 655l146 70l-146 68l39 67l133 -90l-14 160h78l-14 -160l133 90l39 -67l-146 -68l146 -70l-39 -67l-133 92l14 -162h-78l14 162l-133 -92z" />
<glyph unicode="&#xad;" horiz-adv-x="497" d="M0 510h442v143h-442v-143z" />
<glyph unicode="&#xae;" horiz-adv-x="1447" d="M49 653q0 -139 53.5 -262t145.5 -215t215 -145.5t264 -53.5q139 0 262 53.5t215 145.5t145.5 215t53.5 262t-53.5 262t-145.5 215.5t-215 145.5t-264 53q-139 0 -262 -53t-215 -145.5t-145.5 -215t-53.5 -262.5zM203 653q0 111 41 209.5t112.5 172t166.5 116.5t204 43 q106 0 201.5 -43t167 -116.5t112.5 -172t41 -209.5t-41 -209t-112.5 -171.5t-166.5 -116.5t-204 -43t-203 43t-165.5 116.5t-112.5 172t-41 208.5zM471 315l4 -26v-15h123v15l6 26v291h101l206 -332l142 -4l-219 340q113 8 165 58.5t52 156.5q0 86 -59.5 143.5t-200.5 57.5 h-316v-14l-4 -27v-670zM604 711v215h170q63 0 103.5 -23.5t40.5 -77.5q0 -55 -28 -84.5t-110 -29.5h-176z" />
<glyph unicode="&#xaf;" horiz-adv-x="638" d="M41 1296h569v119h-569v-119z" />
<glyph unicode="&#xb0;" horiz-adv-x="731" d="M94 1141q0 -55 21.5 -105.5t58.5 -87.5t87 -58.5t108 -21.5q55 0 105 21.5t87 58.5t58.5 87t21.5 108q0 55 -21.5 105t-58.5 87t-87 58.5t-107 21.5q-55 0 -105.5 -21.5t-87.5 -58.5t-58.5 -87t-21.5 -107zM223 1143q0 61 42.5 103t103.5 42t103 -42t42 -103t-42 -103.5 t-103 -42.5t-103.5 42t-42.5 104z" />
<glyph unicode="&#xb1;" horiz-adv-x="1107" d="M76 0h964v160h-964v-160zM76 621h401v-375h160v375h403v159h-403v375h-160v-375h-401v-159z" />
<glyph unicode="&#xb2;" horiz-adv-x="649" d="M51 575h584l4 95h-440l227 196q27 23 60.5 59t64.5 79t51.5 91t20.5 97q0 111 -80 179.5t-211 68.5q-86 0 -159 -37t-107 -100l57 -72q6 20 24.5 41.5t46 37t59.5 26t66 10.5q74 0 122 -43t48 -109t-38.5 -129.5t-94.5 -112.5l-305 -266v-111z" />
<glyph unicode="&#xb3;" horiz-adv-x="649" d="M45 672q23 -43 96.5 -77t171.5 -34q150 0 240 64.5t90 177.5q0 180 -205 215q86 16 138.5 70.5t52.5 121.5q0 104 -81 167t-210 63q-94 0 -164 -31t-100 -76q14 -16 24 -39q15 -24 27 -32q27 41 81 63.5t120 22.5q80 0 124 -38t44 -100q0 -74 -61.5 -109.5t-153.5 -35.5 h-86v-94h92q100 0 161.5 -40t61.5 -120q0 -74 -57.5 -114t-155.5 -40q-66 0 -123 28t-74 65z" />
<glyph unicode="&#xb4;" horiz-adv-x="583" d="M129 1204l90 -37q39 31 85 70t90 75t81 64.5t57 40.5q-8 12 -65 29q-53 14 -86 31q-16 -14 -48 -48t-77 -90q-88 -106 -127 -135z" />
<glyph unicode="&#xb5;" d="M131 -389h178v412q25 -18 68 -32t98 -14q98 0 170 55.5t117 153.5v-186h170v1055h-176v-527q0 -90 -19.5 -163.5t-55.5 -127t-83 -82t-102 -28.5q-94 0 -141.5 74.5t-47.5 216.5v637h-176v-1444z" />
<glyph unicode="&#xb6;" horiz-adv-x="1060" d="M37 985q0 -88 30.5 -162.5t84 -130t126 -86.5t158.5 -31v-874h158v1583h164v-1583h157v1659h54v59h-500q-98 0 -178 -30.5t-136.5 -88t-87 -137.5t-30.5 -178z" />
<glyph unicode="&#xb7;" horiz-adv-x="512" d="M168 494h229v229h-229v-229z" />
<glyph unicode="&#xb8;" horiz-adv-x="536" d="M158 -367q20 -12 66 -27.5t98 -15.5q98 0 160.5 47.5t62.5 124.5q0 61 -46 101.5t-114 40.5l-49 -6l59 102h-78l-86 -160l13 -22l75 12q39 0 66 -22.5t27 -55.5q0 -37 -29 -60.5t-72 -23.5q-49 0 -76.5 12.5t-46.5 20.5z" />
<glyph unicode="&#xb9;" horiz-adv-x="649" d="M90 1241l43 -92q53 33 98 64.5t99 78.5v-682h127l-2 817h-107q-57 -55 -122.5 -100t-135.5 -86z" />
<glyph unicode="&#xba;" horiz-adv-x="686" d="M61 1112q0 -72 22.5 -132t62.5 -105.5t94.5 -70t119.5 -24.5q66 0 120.5 24.5t94 70t62 105.5t22.5 132q0 147 -81.5 238.5t-217.5 91.5q-135 0 -217 -91t-82 -239zM188 1112q0 106 47.5 175t124.5 69q80 0 126 -69t46 -175q0 -111 -46 -177.5t-126 -66.5t-126 66.5 t-46 177.5z" />
<glyph unicode="&#xbb;" horiz-adv-x="884" d="M92 182h131l217 353v12l-217 352h-131l164 -358zM436 182h131l217 353v12l-217 352h-131l164 -358z" />
<glyph unicode="&#xbc;" horiz-adv-x="1597" d="M35 1241l43 -92q53 33 98 64.5t98 78.5v-682h127l-2 817h-106q-57 -55 -123 -100t-135 -86zM365 -25h137l815 1469h-135zM940 195h408v-195h127l-2 35v160h137v92h-137v565h-170l-363 -567v-90zM1077 287l271 473v-473h-271z" />
<glyph unicode="&#xbd;" horiz-adv-x="1597" d="M33 1241l43 -92q53 33 98 64.5t98 78.5v-682h127l-2 817h-106q-57 -55 -123 -100t-135 -86zM299 -25h137l815 1469h-135zM1032 0h584l4 94h-440l227 197q27 23 60.5 58.5t64.5 78.5t51.5 91t20.5 97q0 111 -80 179.5t-211 68.5q-86 0 -159 -36.5t-107 -100.5l57 -72 q6 20 24.5 42t46 37.5t59.5 25.5t66 10q74 0 122 -43t48 -109t-38.5 -129t-94.5 -112l-305 -266v-111z" />
<glyph unicode="&#xbe;" horiz-adv-x="1597" d="M20 672q23 -43 96.5 -77t172.5 -34q150 0 239.5 64.5t89.5 177.5q0 180 -204 215q86 16 138 70.5t52 121.5q0 104 -81 167t-210 63q-94 0 -163.5 -31t-100.5 -76q14 -16 25 -39q14 -24 26 -32q27 41 81.5 63.5t119.5 22.5q80 0 124 -38t44 -100q0 -74 -61.5 -109.5 t-153.5 -35.5h-86v-94h92q100 0 161.5 -40t61.5 -120q0 -74 -57 -114t-156 -40q-66 0 -123 28t-73 65zM406 -25h137l815 1469h-135zM950 195h408v-195h127l-2 35v160h137v92h-137v565h-170l-363 -567v-90zM1087 287l271 473v-473h-271z" />
<glyph unicode="&#xbf;" horiz-adv-x="942" d="M76 -25q0 -72 27.5 -138t80 -117.5t128 -83t173.5 -31.5q74 0 132.5 19.5t103.5 50t77.5 70.5t55.5 83q-16 12 -37 63q-23 55 -39 58q-100 -178 -270 -178q-111 0 -170 59t-59 158q0 98 44 163.5t109 114.5q49 45 78 84t45 75t21.5 74t5.5 85v84h-172v-74q0 -72 -28 -121 t-93 -115q-39 -29 -77 -66.5t-68.5 -84.5t-49 -105.5t-18.5 -126.5zM383 834h221v213h-221v-213z" />
<glyph unicode="&#xc0;" horiz-adv-x="1167" d="M6 0h184l115 383h547l123 -383h201l-478 1419h-211zM338 1772q20 -12 58 -41t83 -65t91 -75t87 -69l93 37q-20 14 -53 47.5t-79 87.5q-47 55 -77.5 89t-51.5 48q-35 -16 -88 -31q-55 -16 -63 -28zM356 535l226 694l223 -694h-449z" />
<glyph unicode="&#xc1;" horiz-adv-x="1167" d="M6 0h184l115 383h547l123 -383h201l-478 1419h-211zM356 535l226 694l223 -694h-449zM418 1559l90 -37q39 31 85 69.5t90 74.5t81 64.5t57 41.5q-8 12 -65 28q-53 14 -86 31q-16 -14 -48 -48t-77 -89q-88 -106 -127 -135z" />
<glyph unicode="&#xc2;" horiz-adv-x="1167" d="M6 0h184l115 383h547l123 -383h201l-478 1419h-211zM301 1552l158 -8l129 168l131 -168l158 8l-238 275h-102zM356 535l226 694l223 -694h-449z" />
<glyph unicode="&#xc3;" horiz-adv-x="1167" d="M6 0h184l115 383h547l123 -383h201l-478 1419h-211zM254 1620l88 -29q12 35 36.5 57.5t61.5 22.5q53 0 141.5 -47t145.5 -47q74 0 120 49t73 129l-91 29q-12 -35 -36.5 -57.5t-61.5 -22.5q-53 0 -141 47t-144 47q-76 0 -121.5 -49t-70.5 -129zM356 535l226 694l223 -694 h-449z" />
<glyph unicode="&#xc4;" horiz-adv-x="1167" d="M6 0h184l115 383h547l123 -383h201l-478 1419h-211zM311 1638q0 -44 33 -77q33 -31 78 -31t78 31q33 33 32 77q0 45 -32 78q-33 31 -78 31t-78 -31q-33 -33 -33 -78zM356 535l226 694l223 -694h-449zM659 1638q0 -44 33 -77t78 -33t78 32.5t33 77.5t-33 78t-78 33 t-78 -33t-33 -78z" />
<glyph unicode="&#xc5;" horiz-adv-x="1167" d="M6 0h184l115 383h547l123 -383h201l-478 1419h-211zM356 535l226 694l223 -694h-449zM406 1696q0 -76 53 -129.5t129 -53.5t129 53.5t53 129.5t-53 129t-129 53t-129 -53t-53 -129zM492 1696q0 41 27.5 68.5t68.5 27.5t68.5 -27.5t27.5 -68.5t-27.5 -69t-68.5 -28 t-68.5 28t-27.5 69z" />
<glyph unicode="&#xc6;" horiz-adv-x="1765" d="M-2 0h199l196 393h498l12 -393h770v168h-586l-14 489h494v164h-500l-14 430h600v168l-893 2zM473 549l389 717l25 -717h-414z" />
<glyph unicode="&#xc7;" horiz-adv-x="1103" d="M84 705q0 -145 36 -268.5t101.5 -217.5t157.5 -154.5t205 -78.5l-78 -146l12 -22l76 12q39 0 65.5 -22.5t26.5 -55.5q0 -37 -28.5 -60.5t-71.5 -23.5q-49 0 -77 12.5t-46 20.5l-31 -68q20 -12 66.5 -27.5t97.5 -15.5q98 0 160.5 47.5t62.5 124.5q0 61 -46 101.5 t-114 40.5l-49 -6l47 79h25q59 0 124.5 24t120 53.5t90.5 53.5l36 23l-41 62l-41 63l-28 -18q-28 -19 -68.5 -40.5t-88 -39t-88.5 -17.5q-92 0 -166.5 42t-129 118t-83 180.5t-28.5 231.5q0 129 28.5 233.5t82 178t130 113.5t173.5 40q39 0 85 -20.5t84.5 -46t65.5 -45.5 l27 -21l43 61l41 62l-31 28q-31 27 -82 58.5t-115.5 59.5t-132.5 28q-139 0 -250.5 -53.5t-190.5 -149.5t-122 -232.5t-43 -301.5z" />
<glyph unicode="&#xc8;" horiz-adv-x="1032" d="M160 0h784v166h-592v491h549v164h-549v430h500v168h-692v-1419zM276 1772q20 -12 58.5 -41t83.5 -65t91 -75t87 -69l92 37q-20 14 -53 47.5t-78 87.5q-47 55 -77.5 89t-51.5 48q-35 -16 -88 -31q-55 -16 -64 -28z" />
<glyph unicode="&#xc9;" horiz-adv-x="1032" d="M160 0h784v166h-592v491h549v164h-549v430h500v168h-692v-1419zM356 1559l90 -37q39 31 85.5 69.5t90.5 74.5t80.5 64.5t57.5 41.5q-8 12 -66 28q-53 14 -86 31q-16 -14 -48 -48t-77 -89q-88 -106 -127 -135z" />
<glyph unicode="&#xca;" horiz-adv-x="1032" d="M160 0h784v166h-592v491h549v164h-549v430h500v168h-692v-1419zM240 1552l157 -8l129 168l131 -168l158 8l-237 275h-103z" />
<glyph unicode="&#xcb;" horiz-adv-x="1032" d="M160 0h784v166h-592v491h549v164h-549v430h500v168h-692v-1419zM211 1700q0 -45 31 -78q33 -33 77 -33q45 0 78 33q31 33 31 78t-31 78q-33 33 -78 32q-45 0 -77 -32q-31 -33 -31 -78zM557 1700q0 -45 33 -78t78 -33t77.5 33t32.5 78t-32.5 77.5t-77.5 32.5t-78 -32.5 t-33 -77.5z" />
<glyph unicode="&#xcc;" horiz-adv-x="489" d="M2 1772q20 -12 58 -41t83 -65t91.5 -75t87.5 -69l92 37q-20 14 -53 47.5t-78 87.5q-47 55 -78 89t-51 48q-35 -16 -88 -31q-55 -16 -64 -28zM168 0h192v1419h-192v-1419z" />
<glyph unicode="&#xcd;" horiz-adv-x="489" d="M82 1559l90 -37q39 31 85 69.5t90 74.5t81 64.5t57 41.5q-8 12 -65 28q-53 14 -86 31q-16 -14 -48 -48t-77 -89q-88 -106 -127 -135zM168 0h192v1419h-192v-1419z" />
<glyph unicode="&#xce;" horiz-adv-x="489" d="M-35 1552l158 -8l129 168l131 -168l158 8l-238 275h-102zM168 0h192v1419h-192v-1419z" />
<glyph unicode="&#xcf;" horiz-adv-x="489" d="M-38 1700q-1 -45 32 -78q33 -31 78 -31t78 31q33 33 32 78q0 45 -32.5 77.5t-77.5 32.5t-78 -32q-31 -33 -32 -78zM168 0h192v1419h-192v-1419zM309 1700q0 -45 33 -78q33 -31 78 -31t78 31q33 33 31.5 78t-31.5 78q-33 33 -78 32q-45 0 -78 -32.5t-33 -77.5z" />
<glyph unicode="&#xd0;" horiz-adv-x="1284" d="M14 680h133v-680h426q147 0 263 50t197 144.5t123 226.5t42 298q0 152 -44 278.5t-127 220t-200.5 146.5t-265.5 55l-414 6v-616h-133v-129zM340 166v514h311v129h-311v444h219q211 0 324.5 -146t113.5 -400t-109.5 -397.5t-314.5 -143.5h-233z" />
<glyph unicode="&#xd1;" horiz-adv-x="1282" d="M160 0h180v1202l573 -1182l11 -20h219v1419h-180v-1151l-549 1151h-254v-1419zM319 1565l89 -29q12 35 36.5 57.5t61.5 22.5q53 0 141 -47t146 -47q74 0 119.5 49t72.5 129l-90 29q-12 -35 -36.5 -57.5t-61.5 -22.5q-53 0 -141.5 47t-143.5 47q-76 0 -122 -49t-71 -129z " />
<glyph unicode="&#xd2;" horiz-adv-x="1320" d="M84 709q0 -162 41 -296t116.5 -231.5t182 -151t235.5 -53.5t235.5 53.5t182.5 151t117 231.5t41 296t-41 297t-117 232t-182.5 150.5t-235.5 53.5t-235.5 -53.5t-182 -150.5t-116.5 -232.5t-41 -296.5zM287 709q0 129 25.5 233.5t73.5 179t117.5 115.5t155.5 41t156 -41 t118 -115.5t73.5 -179t25.5 -233.5q0 -127 -25.5 -231.5t-73.5 -179.5t-118 -116t-156 -41t-155.5 41t-117.5 116t-73.5 179.5t-25.5 231.5zM416 1772q20 -12 58 -41t83 -65t91 -75t87 -69l92 37q-20 14 -53 47.5t-78 87.5q-47 55 -77.5 89t-51.5 48q-35 -16 -88 -31 q-55 -16 -63 -28z" />
<glyph unicode="&#xd3;" horiz-adv-x="1320" d="M84 709q0 -162 41 -296t116.5 -231.5t182 -151t235.5 -53.5t235.5 53.5t182.5 151t117 231.5t41 296t-41 297t-117 232t-182.5 150.5t-235.5 53.5t-235.5 -53.5t-182 -150.5t-116.5 -232.5t-41 -296.5zM287 709q0 129 25.5 233.5t73.5 179t117.5 115.5t155.5 41t156 -41 t118 -115.5t73.5 -179t25.5 -233.5q0 -127 -25.5 -231.5t-73.5 -179.5t-118 -116t-156 -41t-155.5 41t-117.5 116t-73.5 179.5t-25.5 231.5zM496 1559l90 -37q39 31 85 69.5t90 74.5t81 64.5t57 41.5q-8 12 -65 28q-53 14 -86 31q-16 -14 -48 -48t-77 -89 q-88 -106 -127 -135z" />
<glyph unicode="&#xd4;" horiz-adv-x="1320" d="M84 709q0 -162 41 -296t116.5 -231.5t182 -151t235.5 -53.5t235.5 53.5t182.5 151t117 231.5t41 296t-41 297t-117 232t-182.5 150.5t-235.5 53.5t-235.5 -53.5t-182 -150.5t-116.5 -232.5t-41 -296.5zM287 709q0 129 25.5 233.5t73.5 179t117.5 115.5t155.5 41t156 -41 t118 -115.5t73.5 -179t25.5 -233.5q0 -127 -25.5 -231.5t-73.5 -179.5t-118 -116t-156 -41t-155.5 41t-117.5 116t-73.5 179.5t-25.5 231.5zM379 1552l158 -8l129 168l131 -168l157 8l-237 275h-103z" />
<glyph unicode="&#xd5;" horiz-adv-x="1320" d="M84 709q0 -162 41 -296t116.5 -231.5t182 -151t235.5 -53.5t235.5 53.5t182.5 151t117 231.5t41 296t-41 297t-117 232t-182.5 150.5t-235.5 53.5t-235.5 -53.5t-182 -150.5t-116.5 -232.5t-41 -296.5zM287 709q0 129 25.5 233.5t73.5 179t117.5 115.5t155.5 41t156 -41 t118 -115.5t73.5 -179t25.5 -233.5q0 -127 -25.5 -231.5t-73.5 -179.5t-118 -116t-156 -41t-155.5 41t-117.5 116t-73.5 179.5t-25.5 231.5zM330 1620l88 -29q12 35 36.5 57.5t61.5 22.5q53 0 141 -47t146 -47q74 0 119.5 49t72.5 129l-90 29q-12 -35 -36.5 -57.5 t-61.5 -22.5q-53 0 -141 47t-144 47q-76 0 -122 -49t-70 -129z" />
<glyph unicode="&#xd6;" horiz-adv-x="1320" d="M84 709q0 -162 41 -296t116.5 -231.5t182 -151t235.5 -53.5t235.5 53.5t182.5 151t117 231.5t41 296t-41 297t-117 232t-182.5 150.5t-235.5 53.5t-235.5 -53.5t-182 -150.5t-116.5 -232.5t-41 -296.5zM287 709q0 129 25.5 233.5t73.5 179t117.5 115.5t155.5 41t156 -41 t118 -115.5t73.5 -179t25.5 -233.5q0 -127 -25.5 -231.5t-73.5 -179.5t-118 -116t-156 -41t-155.5 41t-117.5 116t-73.5 179.5t-25.5 231.5zM397 1638q0 -44 31 -77q33 -33 78 -33t77.5 32.5t32.5 77.5t-32 76q-33 33 -78 33t-78 -33q-31 -31 -31 -76zM745 1638 q0 -44 31 -77q33 -33 78 -33t78 32.5t33 77.5t-33 76q-33 33 -78 33t-78 -33q-31 -31 -31 -76z" />
<glyph unicode="&#xd7;" horiz-adv-x="1198" d="M98 156l111 -111l393 393l393 -393l111 111l-393 393l393 393l-111 111l-393 -394l-393 394l-111 -111l394 -393z" />
<glyph unicode="&#xd8;" horiz-adv-x="1320" d="M84 709q0 -324 156 -529q2 -2 2 -4l2 -2l-131 -203l104 -30l100 155q125 -119 338 -119q129 0 234.5 53.5t180.5 151t116 231.5t41 296q0 328 -156 528q-2 2 -3 4t-5 6l131 201l-104 31l-101 -154q-127 117 -334 117q-129 0 -234.5 -53.5t-180 -150.5t-115.5 -232.5 t-41 -296.5zM287 709q0 129 25.5 233.5t72.5 179t115.5 115.5t154.5 41q150 0 234 -109l-533 -821q-70 137 -69 361zM418 252l534 821q72 -139 72 -364q0 -127 -25.5 -231.5t-72.5 -179.5t-116 -116t-155 -41q-152 0 -237 111z" />
<glyph unicode="&#xd9;" horiz-adv-x="1269" d="M152 528q0 -266 121.5 -408.5t361.5 -142.5q236 0 357.5 144.5t121.5 413.5v884h-178v-852q0 -211 -68.5 -316.5t-228.5 -105.5t-227.5 101.5t-67.5 306.5v866h-192v-891zM393 1772q20 -12 58 -41t83.5 -65t91.5 -75t87 -69l92 37q-20 14 -53 47.5t-78 87.5 q-47 55 -78 89t-51 48q-35 -16 -88 -31q-55 -16 -64 -28z" />
<glyph unicode="&#xda;" horiz-adv-x="1269" d="M152 528q0 -266 121.5 -408.5t361.5 -142.5q236 0 357.5 144.5t121.5 413.5v884h-178v-852q0 -211 -68.5 -316.5t-228.5 -105.5t-227.5 101.5t-67.5 306.5v866h-192v-891zM473 1559l90 -37q39 31 85 69.5t90 74.5t81 64.5t58 41.5q-8 12 -66 28q-53 14 -86 31 q-16 -14 -48 -48t-77 -89q-88 -106 -127 -135z" />
<glyph unicode="&#xdb;" horiz-adv-x="1269" d="M152 528q0 -266 121.5 -408.5t361.5 -142.5q236 0 357.5 144.5t121.5 413.5v884h-178v-852q0 -211 -68.5 -316.5t-228.5 -105.5t-227.5 101.5t-67.5 306.5v866h-192v-891zM356 1552l158 -8l129 168l131 -168l158 8l-238 275h-102z" />
<glyph unicode="&#xdc;" horiz-adv-x="1269" d="M152 528q0 -266 121.5 -408.5t361.5 -142.5q236 0 357.5 144.5t121.5 413.5v884h-178v-852q0 -211 -68.5 -316.5t-228.5 -105.5t-227.5 101.5t-67.5 306.5v866h-192v-891zM367 1638q-1 -44 32 -77q33 -31 78 -32t78 32q31 33 31 77q0 45 -31 78q-33 33 -78 32t-78 -32 q-33 -33 -32 -78zM717 1638q0 -44 31 -77q33 -33 77.5 -32t77.5 32q33 33 33 77q0 45 -33 78q-33 31 -78 32t-77 -32q-31 -33 -31 -78z" />
<glyph unicode="&#xdd;" horiz-adv-x="1140" d="M2 1419l475 -825v-594h193v594l469 825h-203l-350 -645l-359 645h-225zM410 1559l90 -37q39 31 85 69.5t90 74.5t81 64.5t57 41.5q-8 12 -65 28q-53 14 -86 31q-16 -14 -48 -48t-77 -89q-88 -106 -127 -135z" />
<glyph unicode="&#xde;" horiz-adv-x="1032" d="M127 0h192v338h242q96 0 175 29.5t134.5 84t86 131t30.5 171.5q0 209 -114.5 319.5t-325.5 110.5h-228v235h-192v-1419zM319 502v516h207q117 0 188.5 -69.5t71.5 -186.5q0 -125 -66.5 -194.5t-184.5 -67.5z" />
<glyph unicode="&#xdf;" horiz-adv-x="1105" d="M74 889h49v-918h178v992q0 111 20.5 186.5t55.5 122.5t81 67.5t97 20.5q76 0 134.5 -53.5t58.5 -159.5q0 -119 -76 -175.5t-201 -62.5q-25 -2 -37 -25.5t-16 -33.5v-84q0 -27 27.5 -48.5t95.5 -45.5q88 -18 145 -45t91 -62t47.5 -78t13.5 -96t-17.5 -101t-51.5 -85 t-81 -59.5t-104 -22.5q-41 0 -74 8t-61 23l-25 -142q29 -8 78 -18t102 -10q98 0 177 32.5t134.5 89t84 131t28.5 160.5q0 100 -52 176t-122 128.5t-139.5 84t-104.5 45.5q154 27 242 108t88 210q0 74 -28.5 138.5t-79 112.5t-121 74.5t-152.5 26.5q-98 0 -178 -32.5 t-137.5 -101.5t-89 -174.5t-31.5 -248.5h-49v-55z" />
<glyph unicode="&#xe0;" horiz-adv-x="1003" d="M86 289q0 -141 88 -226.5t250 -85.5q86 0 168 41.5t143 145.5l10 -164h170q-2 0 -9 50t-7 120v483q0 221 -85 323.5t-284 102.5q-76 0 -142 -18.5t-116.5 -42t-79.5 -42.5l-28 -18l72 -102l24 12q25 13 63.5 28t87 28.5t93.5 13.5q106 0 162.5 -58.5t56.5 -189.5v-41 h-129q-33 0 -62.5 -1t-58.5 -3q-186 -14 -286.5 -104t-100.5 -252zM225 1417q20 -12 58.5 -40.5t83.5 -64.5t91 -75t87 -70l92 37q-20 14 -53 48t-78 87q-47 55 -78 89t-51 49q-35 -16 -88 -31q-55 -16 -64 -29zM276 297q0 104 84 165.5t258 55.5l105 -4v-72 q0 -66 -18.5 -123t-53.5 -102t-84 -70.5t-110 -25.5q-86 0 -133.5 52t-47.5 124z" />
<glyph unicode="&#xe1;" horiz-adv-x="1003" d="M86 289q0 -141 88 -226.5t250 -85.5q86 0 168 41.5t143 145.5l10 -164h170q-2 0 -9 50t-7 120v483q0 221 -85 323.5t-284 102.5q-76 0 -142 -18.5t-116.5 -42t-79.5 -42.5l-28 -18l72 -102l24 12q25 13 63.5 28t87 28.5t93.5 13.5q106 0 162.5 -58.5t56.5 -189.5v-41 h-129q-33 0 -62.5 -1t-58.5 -3q-186 -14 -286.5 -104t-100.5 -252zM276 297q0 104 84 165.5t258 55.5l105 -4v-72q0 -66 -18.5 -123t-53.5 -102t-84 -70.5t-110 -25.5q-86 0 -133.5 52t-47.5 124zM326 1204l90 -37l313 250l-65 29l-86 31l-125 -138z" />
<glyph unicode="&#xe2;" horiz-adv-x="1003" d="M86 289q0 -141 88 -226.5t250 -85.5q86 0 168 41.5t143 145.5l10 -164h170q-2 0 -9 50t-7 120v483q0 221 -85 323.5t-284 102.5q-76 0 -142 -18.5t-116.5 -42t-79.5 -42.5l-28 -18l72 -102l24 12q25 13 63.5 28t87 28.5t93.5 13.5q106 0 162.5 -58.5t56.5 -189.5v-41 h-129q-33 0 -62.5 -1t-58.5 -3q-186 -14 -286.5 -104t-100.5 -252zM188 1198l158 -8l129 168l131 -168l158 8l-238 275h-102zM276 297q0 104 84 165.5t258 55.5l105 -4v-72q0 -66 -18.5 -123t-53.5 -102t-84 -70.5t-110 -25.5q-86 0 -133.5 52t-47.5 124z" />
<glyph unicode="&#xe3;" horiz-adv-x="1003" d="M86 289q0 -141 88 -226.5t250 -85.5q86 0 168 41.5t143 145.5l10 -164h170q-2 0 -9 50t-7 120v483q0 221 -85 323.5t-284 102.5q-76 0 -142 -18.5t-116.5 -42t-79.5 -42.5l-28 -18l72 -102l24 12q25 13 63.5 28t87 28.5t93.5 13.5q106 0 162.5 -58.5t56.5 -189.5v-41 h-129q-33 0 -62.5 -1t-58.5 -3q-186 -14 -286.5 -104t-100.5 -252zM182 1266l88 -29q12 35 37 57.5t62 22.5q53 0 141 -47q27 -14 62.5 -25.5t57 -16.5t25.5 -5q74 0 120 49t73 129l-90 29q-12 -35 -37 -57.5t-62 -22.5q-53 0 -141 47t-143 47q-76 0 -122 -49t-71 -129z M276 297q0 104 84 165.5t258 55.5l105 -4v-72q0 -66 -18.5 -123t-53.5 -102t-84 -70.5t-110 -25.5q-86 0 -133.5 52t-47.5 124z" />
<glyph unicode="&#xe4;" horiz-adv-x="1003" d="M63 289q0 -141 88.5 -226.5t249.5 -85.5q86 0 168.5 41.5t143.5 145.5l10 -164h170q-2 0 -9 50t-7 120v483q0 221 -85 323.5t-284 102.5q-76 0 -142.5 -18.5t-116.5 -42t-79 -42.5l-29 -18l72 -102l25 12q24 13 63 28t87 28.5t93 13.5q106 0 162.5 -58.5t56.5 -189.5v-41 h-129q-33 0 -62.5 -1t-57.5 -3q-186 -14 -287 -104t-101 -252zM180 1284q0 -45 33 -78q33 -31 78 -30q45 0 78 30q33 33 32 78q0 45 -32 78q-33 31 -78 31t-78 -31q-33 -33 -33 -78zM254 297q0 104 84 165.5t258 55.5l104 -4v-72q0 -66 -18 -123t-53 -102t-84 -70.5 t-111 -25.5q-86 0 -133 52t-47 124zM590 1284q0 -45 33 -78q33 -31 77 -30q45 0 78 30q33 33 33 78t-33 78q-33 31 -78 31t-77 -31q-33 -33 -33 -78z" />
<glyph unicode="&#xe5;" horiz-adv-x="1003" d="M86 289q0 -141 88 -226.5t250 -85.5q86 0 168 41.5t143 145.5l10 -164h170q-2 0 -9 50t-7 120v483q0 221 -85 323.5t-284 102.5q-76 0 -142 -18.5t-116.5 -42t-79.5 -42.5l-28 -18l72 -102l24 12q25 13 63.5 28t87 28.5t93.5 13.5q106 0 162.5 -58.5t56.5 -189.5v-41 h-129q-33 0 -62.5 -1t-58.5 -3q-186 -14 -286.5 -104t-100.5 -252zM276 297q0 104 84 165.5t258 55.5l105 -4v-72q0 -66 -18.5 -123t-53.5 -102t-84 -70.5t-110 -25.5q-86 0 -133.5 52t-47.5 124zM334 1352q0 -76 53 -129.5t129 -53.5t129 53.5t53 129.5t-53 129t-129 53 t-129 -53.5t-53 -128.5zM420 1352q0 41 27.5 68.5t68.5 27.5t68.5 -27.5t27.5 -68.5t-27.5 -69t-68.5 -28t-68.5 28t-27.5 69z" />
<glyph unicode="&#xe6;" horiz-adv-x="1638" d="M80 289q0 -141 99.5 -226.5t279.5 -85.5q49 0 100 18.5t97 52.5t81 82t51 106q57 -135 159 -197t237 -62q55 0 114.5 15.5t109.5 33t82 32.5l32 16l-35 61l-31 62l-26 -11q-25 -12 -64 -25.5t-85 -24.5t-85 -11q-141 0 -219 115q-61 94 -74 258h662l10 20 q-4 262 -108.5 411.5t-311.5 149.5q-92 0 -172 -39t-135 -127q-47 80 -131 123t-191 43q-78 0 -144.5 -18.5t-116.5 -42t-79 -42.5l-28 -18l71 -102l26 12q26 13 65.5 28t88 28.5t95.5 13.5q111 0 170 -58.5t59 -189.5v-41h-133q-33 0 -63.5 -1t-59.5 -3q-193 -14 -295 -104 t-102 -252zM270 297q0 104 84 165.5t264 55.5l115 -4v-72q0 -66 -19.5 -123t-55 -102t-87 -70.5t-114.5 -25.5q-88 0 -137.5 52t-49.5 124zM905 631q14 125 64 200q68 106 186 107q104 0 165.5 -82t57.5 -225h-473z" />
<glyph unicode="&#xe7;" horiz-adv-x="815" d="M57 530q0 -106 26 -197t74 -163t114.5 -119t148.5 -63l-80 -148l12 -22l76 12q39 0 65.5 -22.5t26.5 -55.5q0 -37 -28.5 -60.5t-71.5 -23.5q-49 0 -77 12.5t-46 20.5l-31 -68q20 -12 66.5 -27.5t97.5 -15.5q98 0 160.5 47.5t62.5 124.5q0 61 -46 101.5t-113 40.5l-50 -6 l48 79h16q51 0 99 21.5t84 46.5t57 47l22 21l-37 51l-37 51l-15 -15q-15 -14 -41 -30t-59.5 -30.5t-70.5 -14.5q-123 0 -192.5 111.5t-69.5 295.5q0 86 19.5 159t53 127t82 84t105.5 30q39 0 83 -19.5t69.5 -36t29.5 -18.5l74 98l-24 20q-23 19 -62 41.5t-86 42t-92 19.5 q-102 0 -183 -41t-139.5 -113.5t-89.5 -173t-31 -221.5z" />
<glyph unicode="&#xe8;" horiz-adv-x="993" d="M70 532q0 -264 120.5 -409.5t350.5 -145.5q53 0 113.5 12.5t112.5 26t69 19.5l51 18l-35 62l-31 82l-29 -11q-28 -12 -70 -25.5t-90 -24.5t-87 -11q-141 0 -215 115q-59 96 -72 258h668l-6 20q-4 260 -106.5 410.5t-305.5 150.5q-98 0 -179 -40t-138.5 -111.5t-89 -172 t-31.5 -223.5zM256 1417q20 -12 58 -40.5t83 -64.5t91.5 -75t86.5 -70l93 37q-20 14 -53 48t-78 87q-47 55 -78 89t-51 49q-35 -16 -89 -31q-55 -16 -63 -29zM260 631q14 123 62 200q68 106 184 107q100 0 161.5 -82t63.5 -225h-471z" />
<glyph unicode="&#xe9;" horiz-adv-x="993" d="M70 532q0 -264 120.5 -409.5t350.5 -145.5q53 0 113.5 12.5t112.5 26t69 19.5l51 18l-35 62l-31 82l-29 -11q-28 -12 -70 -25.5t-90 -24.5t-87 -11q-141 0 -215 115q-59 96 -72 258h668l-6 20q-4 260 -106.5 410.5t-305.5 150.5q-98 0 -179 -40t-138.5 -111.5t-89 -172 t-31.5 -223.5zM260 631q14 123 62 200q68 106 184 107q100 0 161.5 -82t63.5 -225h-471zM336 1204l90 -37q39 31 85 70t90 75t81 64.5t57 40.5q-8 12 -65 29q-53 14 -86 31q-16 -14 -48 -48t-77 -90q-88 -106 -127 -135z" />
<glyph unicode="&#xea;" horiz-adv-x="1003" d="M70 532q0 -264 120.5 -409.5t350.5 -145.5q53 0 113.5 12.5t112.5 26t69 19.5l51 18l-35 62l-31 82l-29 -11q-28 -12 -70 -25.5t-90 -24.5t-87 -11q-141 0 -215 115q-59 96 -72 258h668l-6 20q-4 260 -106.5 410.5t-305.5 150.5q-98 0 -179 -40t-138.5 -111.5t-89 -172 t-31.5 -223.5zM219 1198l158 -8l129 168l131 -168l158 8l-238 275h-102zM260 631q14 123 62 200q68 106 184 107q100 0 161.5 -82t63.5 -225h-471z" />
<glyph unicode="&#xeb;" horiz-adv-x="993" d="M70 532q0 -264 120.5 -409.5t350.5 -145.5q53 0 113.5 12.5t112.5 26t69 19.5l51 18l-35 62l-31 82l-29 -11q-28 -12 -70 -25.5t-90 -24.5t-87 -11q-141 0 -215 115q-59 96 -72 258h668l-6 20q-4 260 -106.5 410.5t-305.5 150.5q-98 0 -179 -40t-138.5 -111.5t-89 -172 t-31.5 -223.5zM180 1284q0 -45 33 -78q33 -31 78 -30q45 0 78 30q33 33 32 78q0 45 -32 78q-33 31 -78 31t-78 -31q-33 -33 -33 -78zM260 631q14 123 62 200q68 106 184 107q100 0 161.5 -82t63.5 -225h-471zM590 1284q0 -45 33 -78q33 -31 77 -30q45 0 78 30q33 33 33 78 t-33 78q-33 31 -78 31t-77 -31q-33 -33 -33 -78z" />
<glyph unicode="&#xec;" horiz-adv-x="503" d="M8 1417q20 -12 58 -40.5t83.5 -64.5t91.5 -75t87 -70l92 37q-20 14 -53 48t-78 87q-47 55 -78 89t-51 49q-35 -16 -88 -31q-55 -16 -64 -29zM162 0h178l-2 1055h-176v-1055z" />
<glyph unicode="&#xed;" horiz-adv-x="503" d="M88 1204l90 -37q39 31 85 70t90 75t81 64.5t58 40.5q-8 12 -66 29q-53 14 -86 31q-16 -14 -48 -48t-77 -90q-88 -106 -127 -135zM162 0h178l-2 1055h-176v-1055z" />
<glyph unicode="&#xee;" horiz-adv-x="503" d="M-29 1198l158 -8l129 168l131 -168l158 8l-238 275h-102zM162 0h178l-2 1055h-176v-1055z" />
<glyph unicode="&#xef;" horiz-adv-x="503" d="M-38 1346q1 -45 32 -78q33 -33 78 -33t77.5 32.5t32.5 78.5q0 45 -32 77q-33 31 -78 32t-78 -31.5t-32 -77.5zM162 0h178l-2 1055h-176v-1055zM309 1346q0 -45 33 -78t78 -33t78 33q31 33 31.5 78t-32 77.5t-77.5 31.5t-78 -32q-33 -33 -33 -77z" />
<glyph unicode="&#xf0;" horiz-adv-x="1054" d="M70 522q0 -119 32.5 -219t93 -173t142.5 -114t180 -41q100 0 184 43t145.5 119t95.5 181.5t34 228.5q0 309 -203 571q-35 45 -81 92t-105 97l157 98l-83 96l-187 -117q-92 61 -239 115l-111 -90q53 -20 107.5 -47t109.5 -62l-182 -112l88 -92l207 129q59 -47 105 -90 t75 -84q-20 12 -49 20t-60 8q-104 0 -188 -41t-143.5 -114.5t-92 -176t-32.5 -225.5zM264 524q0 184 68.5 298t195.5 114q59 0 106.5 -31t81.5 -86t51 -131t17 -166q0 -88 -18 -161.5t-52 -126t-82 -82t-106 -29.5q-125 0 -193.5 108.5t-68.5 292.5z" />
<glyph unicode="&#xf1;" d="M131 0h137l15 -2h24v528q0 190 73 298t189 108q92 0 139.5 -70.5t47.5 -193.5v-668h137l14 -2h25v649q0 209 -82 320.5t-242 111.5q-98 0 -177 -48t-130 -159v183h-170v-1055zM205 1260l88 -29q12 35 36.5 57.5t61.5 22.5q53 0 141.5 -47t145.5 -47q74 0 119.5 49 t72.5 129l-90 28q-12 -35 -36.5 -57.5t-61.5 -22.5q-53 0 -141 47.5t-144 47.5q-76 0 -122 -49.5t-70 -128.5z" />
<glyph unicode="&#xf2;" horiz-adv-x="1054" d="M74 528q0 -119 33.5 -220t94 -175t144.5 -115t182 -41t181.5 41t143.5 115t94 175t34 220q0 121 -33 222.5t-93 174t-143 113.5t-184 41q-102 0 -185 -41t-143.5 -113.5t-93 -174t-32.5 -222.5zM266 528q0 88 18.5 163t53.5 129t83 84t107 30t107.5 -30t82.5 -84t52 -129 t18 -163q0 -90 -17 -164.5t-51 -128t-82 -83t-110 -29.5q-61 0 -109 29.5t-82 83t-52.5 128t-18.5 164.5zM289 1417q20 -12 58 -40.5t83 -64.5t91 -75t87 -70l92 37q-20 14 -53 48t-78 87q-47 55 -77.5 89t-51.5 49q-35 -16 -88 -31q-55 -16 -63 -29z" />
<glyph unicode="&#xf3;" horiz-adv-x="1054" d="M74 528q0 -119 33.5 -220t94 -175t144.5 -115t182 -41t181.5 41t143.5 115t94 175t34 220q0 121 -33 222.5t-93 174t-143 113.5t-184 41q-102 0 -185 -41t-143.5 -113.5t-93 -174t-32.5 -222.5zM266 528q0 88 18.5 163t53.5 129t83 84t107 30t107.5 -30t82.5 -84t52 -129 t18 -163q0 -90 -17 -164.5t-51 -128t-82 -83t-110 -29.5q-61 0 -109 29.5t-82 83t-52.5 128t-18.5 164.5zM369 1204l90 -37q39 31 85 70t90 75t81 64.5t57 40.5q-8 12 -65 29q-53 14 -86 31q-16 -14 -48 -48t-77 -90q-88 -106 -127 -135z" />
<glyph unicode="&#xf4;" horiz-adv-x="1054" d="M74 528q0 -119 33.5 -220t94 -175t144.5 -115t182 -41t181.5 41t143.5 115t94 175t34 220q0 121 -33 222.5t-93 174t-143 113.5t-184 41q-102 0 -185 -41t-143.5 -113.5t-93 -174t-32.5 -222.5zM252 1198l158 -8l129 168l131 -168l157 8l-237 275h-103zM266 528 q0 88 18.5 163t53.5 129t83 84t107 30t107.5 -30t82.5 -84t52 -129t18 -163q0 -90 -17 -164.5t-51 -128t-82 -83t-110 -29.5q-61 0 -109 29.5t-82 83t-52.5 128t-18.5 164.5z" />
<glyph unicode="&#xf5;" horiz-adv-x="1054" d="M74 528q0 -119 33.5 -220t94 -175t144.5 -115t182 -41t181.5 41t143.5 115t94 175t34 220q0 121 -33 222.5t-93 174t-143 113.5t-184 41q-102 0 -185 -41t-143.5 -113.5t-93 -174t-32.5 -222.5zM203 1266l88 -29q12 35 36.5 57.5t61.5 22.5q53 0 141 -47t146 -47 q74 0 119.5 49t72.5 129l-90 29q-12 -35 -36.5 -57.5t-61.5 -22.5q-53 0 -141 47t-144 47q-76 0 -122 -49t-70 -129zM266 528q0 88 18.5 163t53.5 129t83 84t107 30t107.5 -30t82.5 -84t52 -129t18 -163q0 -90 -17 -164.5t-51 -128t-82 -83t-110 -29.5q-61 0 -109 29.5 t-82 83t-52.5 128t-18.5 164.5z" />
<glyph unicode="&#xf6;" horiz-adv-x="1054" d="M74 528q0 -119 33.5 -220t94 -175t144.5 -115t182 -41t181.5 41t143.5 115t94 175t34 220q0 121 -33 222.5t-93 174t-143 113.5t-184 41q-102 0 -185 -41t-143.5 -113.5t-93 -174t-32.5 -222.5zM242 1345.5q1 -44.5 32 -77.5q33 -33 78 -33t78 33q31 33 32 78t-32 77 q-33 31 -78 31t-78 -31q-33 -33 -32 -77.5zM266 528q0 88 18.5 163t53.5 129t83 84t107 30t107.5 -30t82.5 -84t52 -129t18 -163q0 -90 -17 -164.5t-51 -128t-82 -83t-110 -29.5q-61 0 -109 29.5t-82 83t-52.5 128t-18.5 164.5zM590 1346q0 -45 33 -78q33 -31 77 -31 q45 0 78 31q33 33 33 78t-33 77q-33 31 -78 31t-77 -31q-33 -33 -33 -77z" />
<glyph unicode="&#xf7;" horiz-adv-x="1099" d="M61 469h961v160h-961v-160zM459 23h229v229h-229v-229zM459 848h229v229h-229v-229z" />
<glyph unicode="&#xf8;" horiz-adv-x="1054" d="M51 -55q16 0 47 -14.5t49 -14.5l111 156q102 -94 270 -95q100 0 183.5 41t143.5 114t93 174.5t33 221.5q0 242 -125 394l139 198q-16 0 -47 15q-37 16 -49 16l-113 -160q-96 88 -258 88q-102 0 -185 -41t-143.5 -113.5t-93 -174t-32.5 -222.5q0 -238 116 -387zM266 528 q0 88 18.5 163t53.5 129t83 84t107 30q102 0 164 -78l-389 -551q-37 86 -37 223zM354 211l391 555q43 -92 43 -238q0 -90 -18 -163.5t-52 -128t-82 -84t-108 -29.5q-111 0 -174 88z" />
<glyph unicode="&#xf9;" d="M131 416q0 -215 81 -327t249 -112q98 0 175 55.5t126 153.5l41 -186h129v1055h-176v-527q0 -90 -19.5 -163.5t-55.5 -127t-83 -82t-102 -28.5q-94 0 -141.5 74.5t-47.5 216.5v637h-176v-639zM291 1417q20 -12 58 -40.5t83 -64.5t91 -75t87 -70l92 37q-20 14 -53 48 t-78 87q-47 55 -77.5 89t-51.5 49q-35 -16 -88 -31q-55 -16 -63 -29z" />
<glyph unicode="&#xfa;" d="M131 416q0 -215 81 -327t249 -112q98 0 175 55.5t126 153.5l41 -186h129v1055h-176v-527q0 -90 -19.5 -163.5t-55.5 -127t-83 -82t-102 -28.5q-94 0 -141.5 74.5t-47.5 216.5v637h-176v-639zM371 1204l90 -37q39 31 85 70t90 75t81 64.5t57 40.5q-8 12 -65 29 q-53 14 -86 31q-16 -14 -48 -48t-77 -90q-88 -106 -127 -135z" />
<glyph unicode="&#xfb;" d="M131 416q0 -215 81 -327t249 -112q98 0 175 55.5t126 153.5l41 -186h129v1055h-176v-527q0 -90 -19.5 -163.5t-55.5 -127t-83 -82t-102 -28.5q-94 0 -141.5 74.5t-47.5 216.5v637h-176v-639zM254 1198l158 -8l129 168l131 -168l157 8l-237 275h-103z" />
<glyph unicode="&#xfc;" d="M131 416q0 -215 81 -327t249 -112q98 0 175 55.5t126 153.5l41 -186h129v1055h-176v-527q0 -90 -19.5 -163.5t-55.5 -127t-83 -82t-102 -28.5q-94 0 -141.5 74.5t-47.5 216.5v637h-176v-639zM224 1346q1 -45 32 -78q33 -33 78 -33t77.5 32.5t32.5 78.5q0 45 -32 77 q-33 31 -78 32t-78 -31.5t-32 -77.5zM571 1346q0 -45 33 -78t78 -33t78 33q31 33 32 78t-32 77.5t-78 31.5t-78 -32q-33 -33 -33 -77z" />
<glyph unicode="&#xfd;" horiz-adv-x="833" d="M-8 1055l346 -1055l16 -57q-18 -68 -40.5 -109t-50 -64.5t-59.5 -31.5t-69 -8l-92 16l-8 -145l123 -17q213 0 313 312l369 1159h-170l-246 -840l-240 840h-192zM254 1204l90 -37q39 31 85 70t90 75t81 64.5t57 40.5q-8 12 -65 29q-53 14 -86 31q-16 -14 -48 -48t-77 -90 q-88 -106 -127 -135z" />
<glyph unicode="&#xfe;" horiz-adv-x="1044" d="M145 -389h177v545q49 -94 124.5 -136.5t161.5 -42.5t157 40t120 112t76.5 173t27.5 224t-26.5 225.5t-75.5 175t-121 112.5t-162 40q-86 0 -156.5 -48t-125.5 -152v598h-177v-1866zM319 473v135q6 63 28 121.5t53.5 103t74.5 71t92 26.5q113 0 170.5 -109.5t57.5 -300.5 q0 -86 -16.5 -157.5t-46.5 -125t-72 -83t-91 -29.5q-55 0 -100 29.5t-79 79t-52.5 111.5t-18.5 128z" />
<glyph unicode="&#xff;" horiz-adv-x="833" d="M-8 1055l346 -1055l16 -57q-18 -68 -40.5 -109t-50 -64.5t-59.5 -31.5t-69 -8l-92 16l-8 -145l123 -17q213 0 313 312l369 1159h-170l-246 -840l-240 840h-192zM106 1346q0 -45 33 -78q33 -31 78 -31t78 31q33 33 33 78t-33 77q-33 31 -78 31t-78 -31q-33 -33 -33 -77z M455 1345.5q1 -44.5 32 -77.5q33 -33 78 -33t78 33q31 33 32 78t-32 77q-33 31 -78 31t-78 -31q-33 -33 -32 -77.5z" />
<glyph unicode="&#x152;" horiz-adv-x="1767" d="M84 709q0 -164 47 -297t133 -228.5t208 -147.5t271 -52q43 0 72 8t52.5 20.5t47 27.5t54.5 30v-70h721v168h-586v489h481v164h-481v430h575v168h-692v-67q-43 16 -68.5 31.5t-48 26.5t-52.5 18.5t-79 7.5q-147 0 -268 -52.5t-207 -147.5t-133 -229.5t-47 -297.5zM289 711 q0 266 113.5 414.5t328.5 148.5q35 0 71 -11.5t65.5 -32t48 -46t18.5 -56.5v-823q0 -35 -17.5 -63.5t-46 -50t-63.5 -34t-70 -12.5q-102 0 -185 41t-141.5 115t-90 178.5t-31.5 231.5z" />
<glyph unicode="&#x153;" horiz-adv-x="1660" d="M63 528q0 -119 33 -220t90.5 -175t137 -115t176.5 -41q117 0 210 54.5t142 152.5q59 -113 152.5 -160t199.5 -47q51 0 107.5 18.5t102.5 40t77 40.5l31 18l-33 62l-33 61l-24 -15q-25 -14 -61 -31t-79 -31.5t-80 -14.5q-137 0 -208 115q-59 94 -68 258h631l8 20 q-4 264 -99.5 412.5t-287.5 148.5q-117 0 -203 -52t-127 -144q-115 197 -356 196q-98 0 -179 -41t-138.5 -113.5t-89.5 -174t-32 -222.5zM256 528q0 88 18.5 163t52 129t81 84t106.5 30q57 0 105.5 -30t81 -84t51 -129t18.5 -163q0 -90 -17.5 -164.5t-51 -128t-81 -83 t-106.5 -29.5t-106.5 29.5t-81 83t-52 128t-18.5 164.5zM938 631q12 121 59 200q63 106 177 107q98 0 154 -82t52 -225h-442z" />
<glyph unicode="&#x178;" horiz-adv-x="1140" d="M2 1419l475 -825v-594h193v594l469 825h-203l-350 -645l-359 645h-225zM293 1518q0 -45 33 -78t77 -33q45 0 78 33q31 33 31 78t-31 75q-33 33 -78 33t-77 -33q-33 -31 -33 -75zM641 1518q0 -45 33 -78t78 -33t77 33q31 33 31 78t-31 75q-33 33 -77 33q-45 0 -78 -33 q-33 -31 -33 -75z" />
<glyph unicode="&#x2c6;" horiz-adv-x="655" d="M47 1198l158 -8l129 168l131 -168l158 8l-238 275h-102z" />
<glyph unicode="&#x2dc;" horiz-adv-x="684" d="M14 1266l88 -29q12 35 37 57.5t62 22.5q53 0 141 -47t145 -47q74 0 120 49t73 129l-90 29q-12 -35 -37 -57.5t-61 -22.5q-53 0 -141.5 47t-143.5 47q-76 0 -122 -49t-71 -129z" />
<glyph unicode="&#x2000;" horiz-adv-x="939" />
<glyph unicode="&#x2001;" horiz-adv-x="1878" />
<glyph unicode="&#x2002;" horiz-adv-x="939" />
<glyph unicode="&#x2003;" horiz-adv-x="1878" />
<glyph unicode="&#x2004;" horiz-adv-x="626" />
<glyph unicode="&#x2005;" horiz-adv-x="469" />
<glyph unicode="&#x2006;" horiz-adv-x="313" />
<glyph unicode="&#x2007;" horiz-adv-x="313" />
<glyph unicode="&#x2008;" horiz-adv-x="234" />
<glyph unicode="&#x2009;" horiz-adv-x="375" />
<glyph unicode="&#x200a;" horiz-adv-x="104" />
<glyph unicode="&#x2010;" horiz-adv-x="497" d="M0 510h442v143h-442v-143z" />
<glyph unicode="&#x2011;" horiz-adv-x="497" d="M0 510h442v143h-442v-143z" />
<glyph unicode="&#x2012;" horiz-adv-x="497" d="M0 510h442v143h-442v-143z" />
<glyph unicode="&#x2013;" horiz-adv-x="993" d="M-16 471h991v137h-991v-137z" />
<glyph unicode="&#x2014;" horiz-adv-x="2017" d="M-16 471h2015v137h-2015v-137z" />
<glyph unicode="&#x2018;" horiz-adv-x="512" d="M123 1026l2 -94h174h53l76 500h-139l-80 -193z" />
<glyph unicode="&#x2019;" horiz-adv-x="512" d="M123 932h139l80 192l86 213l-2 95h-174h-53z" />
<glyph unicode="&#x201a;" horiz-adv-x="512" d="M123 -276h139l80 192l86 213l-2 94h-174h-53z" />
<glyph unicode="&#x201c;" horiz-adv-x="935" d="M164 1006l2 -95h174h53l76 500h-139l-80 -192zM532 1006l3 -95h174h53l76 500h-140l-80 -192z" />
<glyph unicode="&#x201d;" horiz-adv-x="935" d="M164 911h139l80 193l86 213l-2 94h-174h-53zM532 911h140l80 193l86 213l-2 94h-174h-54z" />
<glyph unicode="&#x201e;" horiz-adv-x="935" d="M123 -276h139l80 192l86 213l-2 94h-174h-53zM492 -276h139l80 192l86 213l-2 94h-174h-54z" />
<glyph unicode="&#x2022;" horiz-adv-x="634" d="M94 713q0 -43 16.5 -82t45 -69t67.5 -46t84 -16q43 0 82 16t68.5 46t46 69t16.5 82t-17.5 82t-46 68.5t-67.5 46t-84 16.5q-43 0 -82 -16.5t-67.5 -46t-45 -68.5t-16.5 -82z" />
<glyph unicode="&#x2026;" horiz-adv-x="1853" d="M154 0h229v229h-229v-229zM836 0h229v229h-229v-229zM1518 0h229v229h-229v-229z" />
<glyph unicode="&#x202f;" horiz-adv-x="375" />
<glyph unicode="&#x2039;" horiz-adv-x="487" d="M68 535l219 -353h131l-166 359l166 358h-131l-219 -352v-12z" />
<glyph unicode="&#x203a;" horiz-adv-x="487" d="M74 182h131l217 353v12l-217 352h-131l164 -358z" />
<glyph unicode="&#x205f;" horiz-adv-x="469" />
<glyph unicode="&#x20ac;" horiz-adv-x="1103" d="M-20 504h122q25 -119 77 -216.5t127 -166t170 -106.5t206 -38q59 0 124.5 24t120 53.5t90.5 53.5l36 23l-41 62l-41 63l-28 -18q-28 -19 -68.5 -40.5t-88 -39t-88.5 -17.5q-143 0 -243.5 98.5t-141.5 264.5h627v125h-645q-2 20 -3 40.5t-1 43.5q0 59 6 114h643v125h-618 q43 154 141 240t242 86q39 0 85 -20.5t84.5 -46t65.5 -45.5l27 -21l43 61l41 62l-31 28q-31 27 -82 58.5t-115.5 59.5t-132.5 28q-223 0 -373.5 -131t-203.5 -359h-133v-125h110q-6 -59 -6 -122v-39q0 -18 2 -37h-106v-125z" />
<glyph unicode="&#x2122;" horiz-adv-x="1708" d="M76 1294h221v-721h141v721h224v125h-586v-125zM815 573h131v693l225 -693h105l221 693v-693h141v846h-219l-190 -618l-199 618h-215v-846z" />
<glyph unicode="&#x25fc;" horiz-adv-x="1054" d="M0 0v1055h1055v-1055h-1055z" />
</font>
</defs>
</svg>
